<svg xmlns="http://www.w3.org/2000/svg" viewBox="0 0 380.47 762.83"><defs><style>.cls-1,.cls-2,.cls-3,.cls-4{fill:none;stroke-miterlimit:10;}.cls-1{stroke:#59b46d;stroke-width:6px;}.cls-2{stroke:#7ba385;stroke-width:5px;}.cls-3{stroke:#beb2a2;stroke-width:4px;}.cls-4{stroke:#e3d5c2;stroke-width:3px;}</style></defs><g id="Layer_2" data-name="Layer 2"><path class="cls-1" d="M303.2,486.31s-27.29,228.12-29.43,252-24.84,23.92-24.84,23.92-25.45.61-48.14,0c-22.68-2.15-11-30-7.66-36.8a127.34,127.34,0,0,0,10.42-48.75l23.61-329.29S196.81,422.54,195,430.2s.31,1.53-.92,19.62-20.85,22.69-29.13,19.93C147.14,466.07,149,445.23,149,445.23s34.24-158.83,41.19-190.1,10.42-40.47,20.64-51.71,40.81-22.9,40.81-22.9,20.44-5.31,15.67-27.8a100.45,100.45,0,0,1-2.58-37.33c1.36-12.54,2.21-42,34-43.71h9c31.78,1.73,32.63,31.17,34,43.71a100.46,100.46,0,0,1-2.59,37.33c-4.77,22.49,15.67,27.8,15.67,27.8s30.59,11.65,40.81,22.9,13.7,20.44,20.65,51.71,41.18,190.1,41.18,190.1,1.84,20.84-15.94,24.52c-8.28,2.76-27.9-1.84-29.13-19.93s.92-11.95-.92-19.62-32.19-82.78-32.19-82.78l23.61,329.29a127.57,127.57,0,0,0,10.42,48.75c3.38,6.75,15,34.65-7.66,36.8-22.69.61-48.14,0-48.14,0s-22.69,0-24.83-23.92-29.44-252-29.44-252" transform="translate(-112.97 -35.69)"/><path class="cls-2" d="M302.88,571.93s-12.87,125.5-18,163.73-31.69,37-31.69,37H201.79c-32.78-4.12-28-29-24.09-41.53a50.27,50.27,0,0,1,4-9.24c9.46-17.35,10.19-45.38,10.22-46.67a.34.34,0,0,1,0-.1l19.62-249.9a1.77,1.77,0,0,0-3.46-.67h0a25.74,25.74,0,0,0-1.05,5.21c-.3,3.13-1,9.76-2.63,23.05a2.05,2.05,0,0,1-.07.34c-11.68,35.79-37.16,28.65-45.12,26.41-27.39-9.2-20.95-37.82-20.95-37.82s36.68-170.44,40.32-187.66c.16-.78.3-1.57.41-2.36,6.32-45.49,27.11-60,29.14-62.08,6.27-5.72,30.9-16.89,41-21.19s7.16-11.52,5.22-20.39l0-.09a61.73,61.73,0,0,1-1.92-12.47v-.18c.08-1.41,1.1-18.63,1.49-26.21.41-52.6,48-50.22,48-50.22h2.68s47.56-2.38,48,50.22c.39,7.58,1.41,24.8,1.49,26.21a.54.54,0,0,1,0,.18A61.73,61.73,0,0,1,352.08,148l0,.09c-1.94,8.87-4.87,16.11,5.23,20.39s34.75,15.47,41,21.19c2,2,22.82,16.59,29.15,62.08.11.79.24,1.58.4,2.36,3.64,17.22,40.33,187.66,40.33,187.66s6.44,28.62-20.95,37.82c-8,2.24-33.45,9.38-45.12-26.41a1.4,1.4,0,0,1-.08-.34c-1.63-13.29-2.33-19.92-2.63-23.05a25.08,25.08,0,0,0-1.05-5.21h0a1.77,1.77,0,0,0-3.46.67l19.63,249.9v.1c0,1.29.77,29.32,10.22,46.67a51,51,0,0,1,4,9.24c3.87,12.55,8.68,37.41-24.1,41.53H353.19s-26.57,1.23-31.68-37-18-163.73-18-163.73" transform="translate(-112.97 -35.69)"/><path class="cls-3" d="M303.2,672s-1.7,18.53-6.74,64.31c-5.86,49.61-46.88,47.15-46.88,47.15s-42.76,1.09-46.74.79c-56-3.68-35.36-60.2-34.55-61.63,9.61-19.21,11.25-39.45,11.25-39.45l14.85-197.45c-10.77,11-30.8,6.13-34.07,5.85-19.48-4.36-28.75-21.66-29.74-23-9.43-13.63,0-46.3,0-46.3l36.83-169c6.4-36.79,13.35-45.31,17-52.26,12.68-27.39,61.05-42.58,61.05-42.58s-.54-1.09-2.86-9.54c-4.09-14.58-.68-51.51,3.41-65,5.17-14.31,15-21.94,26.16-29s29.57-8,29.57-8h2.86s18.4.88,29.57,8,21,14.72,26.17,29c4.08,13.49,7.49,50.42,3.4,65-2.31,8.45-2.86,9.54-2.86,9.54s48.38,15.19,61,42.58c3.68,7,10.63,15.47,17,52.26l36.83,169s9.44,32.67,0,46.3c-1,1.36-10.25,18.66-29.74,23-3.27.28-23.3,5.18-34.07-5.85L426.87,683.2s1.63,20.24,11.24,39.45c.82,1.43,21.46,58-34.55,61.63-4,.3-46.74-.79-46.74-.79s-41,2.46-46.87-47.15C304.9,690.56,303.2,672,303.2,672" transform="translate(-112.97 -35.69)"/><path class="cls-4" d="M302.6,758.79C294.63,795.79,245,797,245,797H208.57c-74.4-1.23-53.48-70.12-53.48-70.12,13.9-31.61,12.29-41.18,12.29-41.18l13.19-180.29c-77.57,4-65.41-68-65.41-68s44.76-207.88,45.58-210.74c19-63.78,70.32-73.59,70.32-73.59-3.79-28.81.21-52.55,3.45-67.44a51.17,51.17,0,0,1,12.64-24.26c19.54-20.73,52.11-24.06,52.11-24.06a71.73,71.73,0,0,1,9.88,0s23,2.45,41.53,16.2a56.92,56.92,0,0,1,21.65,34.11,192.64,192.64,0,0,1,3,65.45s51.3,9.81,70.31,73.59c.82,2.86,45.58,210.74,45.58,210.74s12.17,71.95-65.41,68L439,685.72s-1.6,9.57,12.3,41.18c0,0,20.91,68.89-53.49,70.12H361.45s-49.67-1.23-57.65-38.23" transform="translate(-112.97 -35.69)"/></g></svg>