<svg xmlns="http://www.w3.org/2000/svg" viewBox="0 0 572.43 761.74"><defs><style>.cls-1{isolation:isolate;}.cls-2{fill:#6db9ca;}.cls-3{fill:#f4b88e;}.cls-4{fill:#f5dcd6;mix-blend-mode:multiply;}.cls-5{fill:#00b6ea;}.cls-6{fill:#bfe5e5;}.cls-7{fill:#f2a57f;}.cls-8{fill:#2f1807;}.cls-9{fill:#fff;}.cls-10{fill:#eba17d;}.cls-11{fill:#95594e;}.cls-12{fill:none;stroke:#e69d82;stroke-linecap:round;stroke-linejoin:round;stroke-width:1.5px;}.cls-13{fill:#e69d82;}</style></defs><g class="cls-1"><g id="Layer_1" data-name="Layer 1"><rect class="cls-2" x="212.41" y="558.35" width="147.56" height="54.33"/><path class="cls-3" d="M368.83,501.74H248.94s3,75.7-11.65,97.68H382C367.31,577.44,368.83,501.74,368.83,501.74Z" transform="translate(-23.43 -7.43)"/><path class="cls-4" d="M247.42,558.93c17.07,11,42.7,16.56,63.15,16.76,22.42.23,42.19-5.64,61.19-13.68-3.57-28.39-2.93-60.27-2.93-60.27H248.94S250.12,531.36,247.42,558.93Z" transform="translate(-23.43 -7.43)"/><path class="cls-3" d="M541.27,651.88l-174-62.34H251.85l-174,62.34S16.89,671.93,24,769.17H595.09C603.41,666,541.27,651.88,541.27,651.88Z" transform="translate(-23.43 -7.43)"/><path class="cls-5" d="M541.27,651.88,399.06,600.94l-89.42,62.34-87.33-63.16L77.82,651.88S16.89,671.93,24,769.17H595.09C603.41,666,541.27,651.88,541.27,651.88Z" transform="translate(-23.43 -7.43)"/><polygon class="cls-2" points="286.21 655.85 274.49 595.9 212.41 558.35 203.37 596.14 286.21 655.85"/><polygon class="cls-6" points="274.49 595.9 245.13 649.68 173.38 600.93 212.41 558.35 274.49 595.9"/><polygon class="cls-2" points="286.21 655.85 297.94 595.9 360.02 558.35 369.07 596.14 286.21 655.85"/><polygon class="cls-6" points="297.94 595.9 327.3 649.68 399.05 600.93 360.02 558.35 297.94 595.9"/><path class="cls-3" d="M441,359.65c-4.14,25.56,3,48.28,16,50.71s26.79-16.26,30.91-41.83-3.06-48.26-16-50.71S445.05,334.1,441,359.65Z" transform="translate(-23.43 -7.43)"/><path class="cls-7" d="M456.53,352.74s.19-1.42.7-3.75a45.9,45.9,0,0,1,3.12-9.2c1.63-3.42,4.25-7.34,7.54-7.55a7,7,0,0,1,2.49.35,12.89,12.89,0,0,1,1.26.65,10.11,10.11,0,0,1,.93.77,13.16,13.16,0,0,1,3.12,5.57,32.84,32.84,0,0,1,1.52,7.26,36,36,0,0,1,.09,7.32c-.41,2.57-.52,5.2-1,7.42s-.84,4.42-1.23,6.41-.93,3.84-1.29,5.49-.86,3-1.16,4.22c-.67,2.34-1,3.71-1,3.71s.66-1.17,1.74-3.31c.49-1.09,1.24-2.34,1.87-3.92s1.39-3.32,2.14-5.3,1.34-4.26,2-6.64,1.05-4.84,1.55-7.44a33.35,33.35,0,0,0,.32-8.75,38.53,38.53,0,0,0-1.65-8.65,18.07,18.07,0,0,0-4.52-7.5,9.74,9.74,0,0,0-1.85-1.33,11.41,11.41,0,0,0-1.77-.72,9.89,9.89,0,0,0-3.91-.19c-2.68.42-4.91,2.42-6.36,4.51a24.16,24.16,0,0,0-3.07,6.41,40.81,40.81,0,0,0-1.74,10.29A24.71,24.71,0,0,0,456.53,352.74Z" transform="translate(-23.43 -7.43)"/><path class="cls-7" d="M456.53,352.74s-1.2-2.72,7.34-3.37c0,0,9.53,1.77,3.92,14.49a41.86,41.86,0,0,0-2.85,8.57c-.85,4.26.67,10.05-1.61,13.84-3,4.89-10.47,2.11-10.91-3.48-.35-4.28,4.05-11.63,6.07-14.67C458.49,368.12,464.61,358.84,456.53,352.74Z" transform="translate(-23.43 -7.43)"/><path class="cls-7" d="M452.42,382.24a3.3,3.3,0,0,0-.66.69,7.89,7.89,0,0,0-1.26,2.38,7.74,7.74,0,0,0-.44,1.81,6.49,6.49,0,0,0-.15,2.12c0,.72.07,1.5.2,2.28a17.58,17.58,0,0,0,.69,2.13,9.67,9.67,0,0,0,1,1.93,15.74,15.74,0,0,0,1.26,1.48,5.4,5.4,0,0,0,2.61,1.85,7.9,7.9,0,0,0,2.91.72,19,19,0,0,0-1.33-3.09,7.78,7.78,0,0,0-.72-1.2c-.2-.46-.36-1-.6-1.42a11.37,11.37,0,0,0-.7-1.34,6.66,6.66,0,0,1-.56-1.42,15.72,15.72,0,0,1-1-2.8,11.51,11.51,0,0,1-.36-1.4c-.07-.48-.28-.95-.32-1.39C452.58,383.8,452.42,382.23,452.42,382.24Z" transform="translate(-23.43 -7.43)"/><path class="cls-3" d="M180.26,359.65c4.14,25.56-3,48.28-16,50.71s-26.8-16.26-30.91-41.83,3.06-48.26,16-50.71S176.16,334.1,180.26,359.65Z" transform="translate(-23.43 -7.43)"/><path class="cls-7" d="M164.68,352.74s-.2-1.42-.71-3.75a45.9,45.9,0,0,0-3.12-9.2c-1.62-3.42-4.24-7.34-7.53-7.55a7.07,7.07,0,0,0-2.5.35,14.14,14.14,0,0,0-1.26.65,8,8,0,0,0-.91.77,13,13,0,0,0-3.13,5.57,32.84,32.84,0,0,0-1.53,7.26,36,36,0,0,0-.08,7.32c.4,2.57.52,5.2,1,7.42s.84,4.42,1.23,6.41.93,3.84,1.29,5.49.85,3,1.16,4.22c.67,2.34,1,3.71,1,3.71s-.67-1.17-1.74-3.31c-.5-1.09-1.24-2.34-1.87-3.92s-1.39-3.32-2.14-5.3-1.34-4.26-2-6.64a75.15,75.15,0,0,1-1.57-7.44,34.24,34.24,0,0,1-.32-8.75,38.55,38.55,0,0,1,1.66-8.65,18,18,0,0,1,4.52-7.5,9.74,9.74,0,0,1,1.85-1.33,10.65,10.65,0,0,1,1.77-.72,9.85,9.85,0,0,1,3.9-.19c2.68.42,4.92,2.42,6.36,4.51a23.56,23.56,0,0,1,3.07,6.41,40.91,40.91,0,0,1,1.75,10.29A24.71,24.71,0,0,1,164.68,352.74Z" transform="translate(-23.43 -7.43)"/><path class="cls-7" d="M164.68,352.74s1.19-2.72-7.34-3.37c0,0-9.53,1.77-3.93,14.49a41.89,41.89,0,0,1,2.86,8.57c.85,4.26-.67,10.05,1.61,13.84,3,4.89,10.47,2.11,10.91-3.48.34-4.28-4-11.63-6.07-14.67C162.72,368.12,156.6,358.84,164.68,352.74Z" transform="translate(-23.43 -7.43)"/><path class="cls-7" d="M168.79,382.24a3.65,3.65,0,0,1,.66.69,8.12,8.12,0,0,1,1.26,2.38,8.27,8.27,0,0,1,.44,1.81,6.49,6.49,0,0,1,.15,2.12c-.05.72-.07,1.5-.2,2.28a17.65,17.65,0,0,1-.7,2.13,9.16,9.16,0,0,1-1,1.93,13.23,13.23,0,0,1-1.26,1.48,5.33,5.33,0,0,1-2.6,1.85,7.9,7.9,0,0,1-2.91.72,19,19,0,0,1,1.33-3.09,8.59,8.59,0,0,1,.71-1.2c.21-.46.36-1,.61-1.42a10.11,10.11,0,0,1,.71-1.34,6.6,6.6,0,0,0,.54-1.42,14.31,14.31,0,0,0,1-2.8A10,10,0,0,0,168,387c.07-.48.28-.95.31-1.39C168.62,383.8,168.79,382.23,168.79,382.24Z" transform="translate(-23.43 -7.43)"/><path class="cls-3" d="M312.17,83.92v0h-4.08v0c-103,.91-160.91,30.25-145.09,218l17.74,149.6s3.15,27.28,33.08,43.61l56,41.48s26.58,11.81,40.38,10.64c13.76,1.17,40.36-10.64,40.36-10.64l56-41.49c29.93-16.33,33.08-43.62,33.08-43.62L458.25,305.4C474,117.61,415.19,84.81,312.17,83.92Z" transform="translate(-23.43 -7.43)"/><path class="cls-8" d="M234.25,314.24c.06,9.75,5.53,17.64,12.23,17.6s12.08-8,12-17.75-5.53-17.64-12.23-17.61S234.19,304.47,234.25,314.24Z" transform="translate(-23.43 -7.43)"/><path class="cls-9" d="M241.56,308.6a5.25,5.25,0,1,1-5.24-5.25A5.24,5.24,0,0,1,241.56,308.6Z" transform="translate(-23.43 -7.43)"/><path class="cls-8" d="M387,314.24c-.07,9.75-5.54,17.64-12.24,17.6s-12.08-8-12-17.75,5.53-17.64,12.23-17.61S387,304.47,387,314.24Z" transform="translate(-23.43 -7.43)"/><path class="cls-9" d="M379.65,308.6a5.25,5.25,0,1,0,5.24-5.25A5.24,5.24,0,0,0,379.65,308.6Z" transform="translate(-23.43 -7.43)"/><path class="cls-10" d="M333.44,413.11a27.2,27.2,0,0,1-9.43,7.62,37.63,37.63,0,0,1-5.76,2.31,43.38,43.38,0,0,1-6.2,1.27A35.93,35.93,0,0,1,293,421.1a52.13,52.13,0,0,1-5.68-3.25l-4.15-2.42,1.12-4.95c2.36-10.38,5.12-20.67,8.37-30.87.74-2.57,1.65-5.1,2.52-7.63s1.71-5.08,2.72-7.59c1.9-5,3.92-10.06,6.34-15,.25,5.48.1,10.89-.16,16.27-.08,2.71-.34,5.37-.54,8.05s-.39,5.35-.73,8c-1.08,10.65-2.65,21.19-4.63,31.65l-3-7.36c1.36.68,2.64,1.55,4,2.14a37.6,37.6,0,0,0,4.14,1.77c1.38.61,2.87.9,4.32,1.43,1.51.27,3,.78,4.6,1A31.83,31.83,0,0,0,317,413c1.66.13,3.39.32,5.15.33s3.59.11,5.43,0S331.39,413.2,333.44,413.11Z" transform="translate(-23.43 -7.43)"/><path class="cls-11" d="M271.78,278.22a8.5,8.5,0,0,1-9.61,6.5,93.23,93.23,0,0,0-49,4.11c-3.77,1.37-8.35-.65-10.47-4.82h0a7.77,7.77,0,0,1,4.25-10.94A110.3,110.3,0,0,1,264.67,268c5,.89,8.23,5.72,7.11,10.26Z" transform="translate(-23.43 -7.43)"/><path class="cls-11" d="M344.77,278.22a8.5,8.5,0,0,0,9.62,6.5,93.25,93.25,0,0,1,49,4.11c3.77,1.37,8.34-.65,10.46-4.82h0a7.77,7.77,0,0,0-4.25-10.94A110.28,110.28,0,0,0,351.88,268c-5,.89-8.23,5.72-7.11,10.26Z" transform="translate(-23.43 -7.43)"/><path class="cls-11" d="M448.38,346.05c-4.82-9.83-1.53-25.62-3.7-36.6-2.7-13.68-8.84-25.74-12.94-39.45-9.71-32.5,14.5-72.46-17.51-96.26-15.6-11.6-53.2,1.29-93.5,4-50.42,3.36-75.14-26.36-97.17-15.57-15.32,7.5-16.9,11.43-22.05,25-6.14,16.2-19.69,28.52-24.44,45.36-11,39,4.36,45.26-8.26,102,0,0,1.48-10-12-16.92,0,0-12.43-2.52-17.06,7,3.24-6.62-3.34-29.5-3.81-36.78-1.18-17.87-3.22-35.92-1-53.79,2.39-19.16,4.79-37.54,5.34-56.9.6-21.23,4.72-42.42,14.41-61.48a107.8,107.8,0,0,1,6.1-10.39C171.38,89.15,186.57,87.73,194,69.8c10-24.15,11.5-40.71,37-50.06,40.95-15,57.45-15.57,87.47-5.62,18.66,6.19,32.54,16.78,52,20.63s40.07,1.73,57.43,10c35,16.72,50.91,60.58,57.63,95,7.75,39.8.66,60.42.66,101.21,0,17.63-4.75,44-8,76.67-.63,6.38-16.5,2.07-23.33,9.76-3.09,3.49-6.62,20.08-6.81,20.53Z" transform="translate(-23.43 -7.43)"/><path class="cls-12" d="M348.69,452.07s-56.88,15.4-76.18,0" transform="translate(-23.43 -7.43)"/><path class="cls-13" d="M310.84,475.66a12.49,12.49,0,0,1-5.24-.1s-.28,2.74,2.88,2.76C308.48,478.32,310.55,478.51,310.84,475.66Z" transform="translate(-23.43 -7.43)"/><path class="cls-12" d="M322.67,468s-13.9,4.23-27.34.21" transform="translate(-23.43 -7.43)"/></g></g></svg>