<svg xmlns="http://www.w3.org/2000/svg" viewBox="0 0 487.91 744"><defs><style>.cls-1{isolation:isolate;}.cls-2{fill:#c87053;}.cls-3{fill:#e08d61;}.cls-4{fill:#f4b88e;}.cls-5{fill:#f5dcd6;mix-blend-mode:multiply;}.cls-6{fill:#f2a57f;}.cls-7{fill:#2f1807;}.cls-8{fill:#fff;}.cls-9{fill:#f37d7f;}.cls-10{fill:#f5a586;}.cls-11{fill:#e08aba;}</style></defs><g class="cls-1"><g id="Layer_1" data-name="Layer 1"><rect class="cls-2" x="57.68" y="276.5" width="338.58" height="384.07"/><rect class="cls-3" x="57.68" y="193.17" width="72.85" height="467.39"/><path class="cls-4" d="M358.22,508.42H251.73s2.69,81.54-10.35,105.22H369.91C356.87,590,358.22,508.42,358.22,508.42Z" transform="translate(-61.7 -24.83)"/><path class="cls-5" d="M251.14,558.53c19.84,9.35,39.83,18.3,62.55,16.13a129.15,129.15,0,0,0,46.05-13.72c-1.95-26.77-1.52-52.52-1.52-52.52H251.73S252.53,532.66,251.14,558.53Z" transform="translate(-61.7 -24.83)"/><path class="cls-4" d="M503.07,659.86,354.75,602H256.39L108.06,659.86s-51.95,18.63-45.87,109H549C556,672.94,503.07,659.86,503.07,659.86Z" transform="translate(-61.7 -24.83)"/><path class="cls-4" d="M439.46,353.38c-4.39,27.08,3.22,51.15,17,53.72s28.39-17.22,32.74-44.31-3.24-51.14-17-53.73S443.81,326.3,439.46,353.38Z" transform="translate(-61.7 -24.83)"/><path class="cls-6" d="M456,346.07s.2-1.52.74-4a48.83,48.83,0,0,1,3.31-9.74c1.72-3.62,4.49-7.78,8-8a7.37,7.37,0,0,1,2.64.37,14.55,14.55,0,0,1,1.34.69c.29.3.61.41,1,.82a13.81,13.81,0,0,1,3.31,5.9,34.32,34.32,0,0,1,1.61,7.69,37.51,37.51,0,0,1,.1,7.76c-.43,2.71-.55,5.51-1.05,7.86s-.89,4.69-1.3,6.79c-.56,2.12-1,4.08-1.37,5.82s-.91,3.22-1.22,4.47c-.71,2.47-1.06,3.93-1.06,3.93s.7-1.24,1.84-3.51c.53-1.16,1.32-2.48,2-4.15s1.48-3.52,2.27-5.61,1.43-4.52,2.16-7.05,1.11-5.12,1.65-7.87a36.06,36.06,0,0,0,.34-9.27,41.68,41.68,0,0,0-1.75-9.18,19,19,0,0,0-4.79-7.93,10.38,10.38,0,0,0-1.95-1.41,13.7,13.7,0,0,0-1.89-.77,10.62,10.62,0,0,0-4.13-.2c-2.84.45-5.21,2.57-6.74,4.78a24.73,24.73,0,0,0-3.25,6.79,42.9,42.9,0,0,0-1.85,10.9A27,27,0,0,0,456,346.07Z" transform="translate(-61.7 -24.83)"/><path class="cls-6" d="M456,346.07s-1.27-2.9,7.77-3.58c0,0,10.1,1.87,4.16,15.34a43.5,43.5,0,0,0-3,9.09c-.9,4.52.71,10.64-1.72,14.66-3.13,5.18-11.08,2.23-11.55-3.69-.37-4.54,4.3-12.32,6.43-15.54C458,362.34,464.53,352.51,456,346.07Z" transform="translate(-61.7 -24.83)"/><path class="cls-6" d="M451.61,377.3a5.26,5.26,0,0,0-.7.73,8.67,8.67,0,0,0-1.33,2.53,7.71,7.71,0,0,0-.47,1.92,7,7,0,0,0-.16,2.24,22.64,22.64,0,0,0,.21,2.41,18.08,18.08,0,0,0,.74,2.26,10.41,10.41,0,0,0,1,2.06,19.1,19.1,0,0,0,1.34,1.56,5.69,5.69,0,0,0,2.76,2,8.15,8.15,0,0,0,3.08.76,20.24,20.24,0,0,0-1.41-3.27,9.12,9.12,0,0,0-.75-1.28,15.24,15.24,0,0,0-.65-1.49,10.62,10.62,0,0,0-.74-1.42,7.75,7.75,0,0,1-.59-1.51,16,16,0,0,1-1.09-3,10.23,10.23,0,0,1-.39-1.49c-.07-.51-.3-1-.34-1.48C451.78,379,451.61,377.29,451.61,377.3Z" transform="translate(-61.7 -24.83)"/><path class="cls-4" d="M178.06,353.38c4.39,27.08-3.22,51.15-16.95,53.72s-28.38-17.22-32.74-44.31,3.23-51.14,17-53.73S173.72,326.3,178.06,353.38Z" transform="translate(-61.7 -24.83)"/><path class="cls-6" d="M161.56,346.07s-.21-1.52-.75-4a48.83,48.83,0,0,0-3.31-9.74c-1.72-3.62-4.49-7.78-8-8a7.4,7.4,0,0,0-2.64.37,14.55,14.55,0,0,0-1.34.69,11.83,11.83,0,0,0-1,.82,13.93,13.93,0,0,0-3.32,5.9,34.88,34.88,0,0,0-1.61,7.69,37.48,37.48,0,0,0-.09,7.76c.42,2.71.55,5.51,1,7.86s.9,4.69,1.3,6.79c.56,2.12,1,4.08,1.37,5.82s.91,3.22,1.23,4.47c.7,2.47,1.06,3.93,1.06,3.93s-.71-1.24-1.85-3.51c-.53-1.16-1.32-2.48-2-4.15s-1.48-3.52-2.27-5.61-1.43-4.52-2.16-7.05a80.38,80.38,0,0,1-1.66-7.87,36.51,36.51,0,0,1-.34-9.27,41.7,41.7,0,0,1,1.76-9.18,19,19,0,0,1,4.79-7.93,10.06,10.06,0,0,1,2-1.41,13.54,13.54,0,0,1,1.88-.77,10.69,10.69,0,0,1,4.14-.2c2.85.45,5.21,2.57,6.74,4.78a24.77,24.77,0,0,1,3.26,6.79,43.26,43.26,0,0,1,1.84,10.9A28.12,28.12,0,0,1,161.56,346.07Z" transform="translate(-61.7 -24.83)"/><path class="cls-6" d="M161.56,346.07s1.26-2.9-7.78-3.58c0,0-10.09,1.87-4.16,15.34a44.09,44.09,0,0,1,3,9.09c.91,4.52-.7,10.64,1.72,14.66,3.13,5.18,11.08,2.23,11.55-3.69.37-4.54-4.29-12.32-6.43-15.54C159.48,362.34,153,352.51,161.56,346.07Z" transform="translate(-61.7 -24.83)"/><path class="cls-6" d="M165.91,377.3a4.63,4.63,0,0,1,.7.73,8.68,8.68,0,0,1,1.32,2.53,8.17,8.17,0,0,1,.48,1.92,7,7,0,0,1,.16,2.24,22.64,22.64,0,0,1-.21,2.41,16.58,16.58,0,0,1-.74,2.26,10.41,10.41,0,0,1-1,2.06,17.33,17.33,0,0,1-1.34,1.56,5.69,5.69,0,0,1-2.76,2,8.15,8.15,0,0,1-3.08.76,20.24,20.24,0,0,1,1.41-3.27,9.12,9.12,0,0,1,.75-1.28c.23-.48.39-1,.64-1.49a10.74,10.74,0,0,1,.76-1.42,7.67,7.67,0,0,0,.57-1.51,16.78,16.78,0,0,0,1.11-3,13.63,13.63,0,0,0,.39-1.49c.06-.51.28-1,.33-1.48C165.74,379,165.92,377.29,165.91,377.3Z" transform="translate(-61.7 -24.83)"/><path class="cls-4" d="M443.75,133.43S397,82.26,305.07,79.42c-91.88,4.82-138.43,57.78-138.43,57.78-25,80.55-9,175,1.63,256.7,7.85,60.34,48.43,102.57,99.58,132a95.13,95.13,0,0,0,42.16,13A94.93,94.93,0,0,0,351.87,525c49.7-33.7,87.73-75.32,97.22-136.65,8.19-53,10-111.5,8.22-164.94C456.3,193.89,453.16,161.59,443.75,133.43Z" transform="translate(-61.7 -24.83)"/><path class="cls-3" d="M265.1,298.26s-32.85-11.07-66.83,4.52c6.7-36.25,69.49-21.37,69.49-21.37s4.14,1,3.69,7.46C271.45,288.87,269.78,300,265.1,298.26Z" transform="translate(-61.7 -24.83)"/><path class="cls-3" d="M341.68,298.26S379,287.19,413,302.78c-6.69-36.25-74-21.37-74-21.37s-4.14,1-3.69,7.46C335.33,288.87,337,300,341.68,298.26Z" transform="translate(-61.7 -24.83)"/><path class="cls-7" d="M223.4,332c.07,10.51,6,19,13.18,19s13-8.61,12.95-19.12-6-19-13.17-19S223.34,321.48,223.4,332Z" transform="translate(-61.7 -24.83)"/><path class="cls-8" d="M231.28,325.93a5.65,5.65,0,1,1-5.65-5.65A5.65,5.65,0,0,1,231.28,325.93Z" transform="translate(-61.7 -24.83)"/><path class="cls-7" d="M387.9,332c-.07,10.51-6,19-13.18,19s-13-8.61-13-19.12,6-19,13.18-19S388,321.48,387.9,332Z" transform="translate(-61.7 -24.83)"/><path class="cls-8" d="M380,325.93a5.65,5.65,0,1,0,5.65-5.65A5.65,5.65,0,0,0,380,325.93Z" transform="translate(-61.7 -24.83)"/><path class="cls-8" d="M272.94,450.59C273,460.75,287.41,469,305.18,469s32.17-8.23,32.24-18.39Z" transform="translate(-61.7 -24.83)"/><path class="cls-9" d="M335.71,453.44c7.59-1.84,10.51-3.9,10.51-3.9s-5.26-2.21-12.65-4.44c-19-8-17.7,2.37-27.82,2.34-5.06.16-10.13-5.36-14.86-4.7a94.41,94.41,0,0,0-13,2.38,63.52,63.52,0,0,0-12.65,4.42s3.89,2.6,11.47,4.44a130.07,130.07,0,0,1,20.63,1s8.59,2.15,14.36.36c0,0,13.65-2.89,24-1.92" transform="translate(-61.7 -24.83)"/><path class="cls-9" d="M339.86,449.52c-7.43,7.65-19.07,14.62-37,14.62a47.26,47.26,0,0,1-31.33-14.62h-6.48c.22.51.39,1,.64,1.53,1.65,2.93,3,6.41,5.48,9.52q1.77,2.4,3.65,4.91a51.25,51.25,0,0,0,4.61,4.59l2.46,2.28,2.91,1.92c2,1.25,3.72,2.79,6.38,3.54a52.28,52.28,0,0,0,7.39,2.36l3.17.42,1.6.21.78.11.4,0,1.07.08,7.52-.94a54.15,54.15,0,0,0,7-2.34c2.41-.68,4.23-2.28,6.24-3.49l2.9-1.93,2.47-2.29a52.22,52.22,0,0,0,4.59-4.58q1.89-2.52,3.66-4.91c2.45-3.1,3.83-6.59,5.48-9.53.25-.5.41-1,.63-1.51Z" transform="translate(-61.7 -24.83)"/><path class="cls-8" d="M305.18,473.84c26.4-1.77,31.3-17.13,31.3-17.13-12,14.82-31.3,12.79-31.3,12.79a2,2,0,0,0-1.74,2.3S303.84,473.93,305.18,473.84Z" transform="translate(-61.7 -24.83)"/><path class="cls-3" d="M508,233.43s8.14-177.19-152.6-206.5c0,0-114-18.2-156.74,52.49l42.75,108.25s73,72.12,212.12,115.11c0,0,2.79,97-18.1,131.27,0,0-21.83,40.86-44.08,59.7,0,0-6.28,94.65,60.27,146l43.62,17,18.26,7.93s3.74-67.78-23.1-125.83C490.37,538.9,558.47,449,508,233.43Z" transform="translate(-61.7 -24.83)"/><path class="cls-10" d="M287.09,403.77l.69-.15c.44-.08,1.13-.34,1.88-.45,1.54-.34,3.59-.73,5.83-1.11s4.6-.63,6.94-.76,4.66-.2,6.9-.19,4.44.24,6.65.45c1.12.18,2.2.23,3.3.38s2.23.33,3.29.44,2.16.4,3.14.52,1.86.24,2.63.35,1.48.3,1.92.38l.72.14s-.06.24-.19.68a12,12,0,0,1-.6,1.87,17.17,17.17,0,0,1-3.53,5.66,15.9,15.9,0,0,1-3.28,2.88,19.17,19.17,0,0,1-4.25,2.35,19.81,19.81,0,0,1-5,1.47,21.26,21.26,0,0,1-5.28.43,24.84,24.84,0,0,1-5.19-.67,24.46,24.46,0,0,1-4.74-1.6,23.71,23.71,0,0,1-7.24-5.09,20.9,20.9,0,0,1-3.72-5.43,11.12,11.12,0,0,1-.7-1.86C287.15,404,287.09,403.77,287.09,403.77Z" transform="translate(-61.7 -24.83)"/><path class="cls-11" d="M369.91,607.88l133.16,52s53,13.08,45.89,109H62.19c-6.08-90.33,45.87-109,45.87-109l136.05-53.11,59.33,62.35Z" transform="translate(-61.7 -24.83)"/><path class="cls-3" d="M265.08,181s-99.53,21.09-99.15,161.47c0,0-7.34-38.55-30.78-26.42,0,0-74.34-199.17,99.73-251.74Z" transform="translate(-61.7 -24.83)"/><polygon class="cls-4" points="162.83 124.66 173.99 175.13 186 168.77 162.83 124.66"/></g></g></svg>