<?xml version="1.0" encoding="utf-8"?>
<!-- Generator: Adobe Illustrator 25.3.1, SVG Export Plug-In . SVG Version: 6.00 Build 0)  -->
<svg version="1.1" id="Layer_1" xmlns="http://www.w3.org/2000/svg" xmlns:xlink="http://www.w3.org/1999/xlink" x="0px" y="0px"
	 viewBox="0 0 305.3 714.8" style="enable-background:new 0 0 305.3 714.8;" xml:space="preserve">
<style type="text/css">
	.st0{fill:none;stroke:#333333;stroke-width:2;stroke-miterlimit:10;}
	.st1{fill:none;stroke:#7A6FB9;stroke-width:3;stroke-miterlimit:10;}
	.st2{fill:none;stroke:#333333;stroke-width:2;stroke-linecap:round;stroke-linejoin:round;}
	.st3{fill:none;stroke:#7A6FB9;stroke-width:3;stroke-linecap:round;stroke-linejoin:round;}
	.st4{fill:none;stroke:#7A6FB9;stroke-width:3;stroke-linecap:round;stroke-miterlimit:10;}
	.st5{fill:#231F20;}
</style>
<g id="Layer_2_1_">
	<path class="st0" d="M196.8,215.5c-1.1,3.7-3.5,13.1-7.6,28.5l-0.9,3.9c-1,4.7-1.7,9.4-2.2,14.2c-1.4,14.5-1.3,29,0.3,43.5
		c0.2,1.8,0.5,4.1,0.9,6.8c0.4,3.3,0.9,7.2,1.4,11.4l0,0c2.3,19.5,5.4,46,6.2,54.8c1,12.3,1,29.4,0.5,51.3
		c-4.1,40.9-3.8,77.9,0.3,104.4c4.1,26.5,0.2,42.6,0,47.7s-7.4,22.5-12,38.6s-5.4,34.3-4.7,38.5s1.7,3.4,3.6,7.3s0.2,3.4,0,5.3
		s0.7,11.2,1.2,15.2s2.4,1.9,6,11.1s-2.4,6.6-2.4,6.6c-1.5,6.3-5.3,2.4-5.3,2.4c-1.9,6.6-7.3,2.5-7.3,2.5c-3.2,6.6-8.8,1.5-8.8,1.5
		c-9.9,7.3-11.4-2.6-11.9-7.3s0.2-10.7-0.3-14.6s0.5-28.1,1.7-33.9c4.4-11.2,4.6-39.5,4.6-44.6c-5.4-20.4-4.3-41.4-3.6-57.2
		s0-25.3-3.8-34.5c-3.8-9.2-5.6-30.9-5.6-30.9c-2.5-11.5-14.4-104.5-14.4-104.5h-4.8l-3.1,22.8c-3.1,22.8-5.6,53.5-6.3,59.9
		s-1.7,7.7-3.1,12.2s-3.1,25.7-5.8,37.6c-2.7,11.9-4.4,24.5-3.9,33.5s-1.2,40.3-4.1,52.9s-2.2,22-1.7,30.6s3.3,15.7,4.8,21.3
		c0.9,2.8,1.3,5.7,1.3,8.7c0,0-0.1,25.9,0.4,28.8s0.2,7.2,0.4,10.3s-1.5,8-1.5,8c-5,8.4-11.4-0.2-11.4-0.2c-4.8,6.6-8.2-1-8.2-1
		c-5.4,5-8.2-1.5-8.2-1.5c-4.8,1.8-4.1-2.5-4.1-2.5h-2c-1.3,0-1.4-1.9-1.3-3.7c0.1-1.6,0.6-3.1,1.4-4.5c1-1.9,4.2-11.5,5.4-13.5
		s1-9.2,0.6-11c-0.2-2-0.1-4,0.4-5.9c0.3-1.7,1.2-2.7,2.4-5.4s0.8-8.3,0-11.9s-2-14.3-2.8-20.2s-10-35.7-13.8-51.3
		c-3.8-15.6,2.5-42.4,5.4-52.3s1.8-35,1.5-39.1s-5.1-81.4-4.1-94c0.7-8.4,3.7-41.4,6.3-67.3c0.4-4.2,0.8-8.3,1.2-12
		c0.8-7.5,1.4-13.7,1.9-17.4c1.2-9.3-0.5-22.6-2.2-33.1c-0.9-5.8-1.8-10.7-2.3-13.6c-0.2-0.8-0.3-1.7-0.3-2.5
		c-0.1-3.4-3.5-20.4-5.9-28.3"/>
	<path class="st0" d="M60.2,220.7c-1.7,5.6-8.3,24.3-8.3,28.5c0,4.6-2.4,22.5-5.3,34.2s-8,29-14.7,43.8S24,350.7,24.6,357
		s3.5,8.3,4.3,10.8c0.5,2.1,0.8,4.3,0.8,6.5c0,0-0.7,24.8-0.4,27.8s-2.1,3.2-3.4,3.3c-2-0.3-2-4.4-2-4.4
		c-0.1-15.6-3.7-15.9-5.8-15.9c-3.2,0-3.2,5.1-3.2,6.4c-1,6,7.2,14.6,7.2,14.6c2.2,2.6,8.3,3.3,9.3,5.1s-0.4,2.4-1.2,2.8
		s-10-2-11.1-2.3c-6.4-1.5-12.1-12.2-14.4-17c-0.7-1.4-1-3-0.9-4.6c0.2-3.5,0.5-10.2,0.6-16.1c0.1-8.3,2.3-31.4,2.8-37.5
		s0.8-21.7,2-44.7s13-59.9,14.7-65.5s6.8-30.4,7.7-37.7c0.2-1.9,0.5-4.2,0.8-6.9c0.3-3.3,0.7-7.2,1-11.6c0.5-6.2,1-13.6,1.5-21.9
		c1.2-19.3,14.2-25.9,17.1-26.6c6.8-1.4,22.8-6.8,26.9-10.1c2.7-2.2,12.6-7,19.7-10.3c3.6-1.7,6.4-3,7.2-3.4c2.2-1.1,2-2.9,4.2-5.9
		s0.4-7.3,0-8.3c-7.4-12.1-5.2-20-5.2-20s-0.4,0.9-4-0.1s-4.2-12.6-3.7-15.1s2.4-1.4,2.4-1.4c-1.3-5.6-1.3-19.5-1.2-21.3
		C103.4,0.1,130.9,1,131.8,1c27.4,2,29.9,24.8,29.9,24.8v18.7c0,0,1.2,0.6,2.7,3.2s-0.2,6.3-1.4,8.8s-5.6,5.2-5.6,5.2l-0.3,3.6
		c0,0-0.5,3.8-0.5,5.4c-0.1,1.8-0.6,3.5-1.3,5.1c-0.7,2.3-1.8,4.6-3.1,6.6c-1.8,2.8-0.3,3.6,0.2,7.1c0.2,1.5,5.9,5.9,13.3,10.8
		c10.6,7.1,24.7,15.4,30.6,17.5c10,3.6,14,2.3,22.5,9.7c7.8,6.9,9.2,24.9,9.5,42.1v4.1c0,2.3,0.2,4.7,0.5,7
		c2.5,21.1,13.6,58.7,16.8,69.6c3.6,12.3,6.9,36.8,6.6,42.6s2.6,52.8,3,61.1s2.7,17,3.8,25.7s-1,13.4-1,13.4
		c-2.7,9.3-10.3,15.3-13.3,17.7s-5.6,2.5-10.5,2.7s-4.1-2.4-2.7-3.8s3.6-2,5.9-2.7c10.5-4.2,9.4-16.1,9.4-17.9c-3.8-9.8-8.3,0-8.3,0
		c-0.5,2,0.1,7.9,0,11.5s-1.7,4.3-4,4.5s-3.1-5.2-3.1-5.2v-14.3c0-1.8-0.3-6.9,0-11c0.2-3,2-5.1,3.1-8.9s1.5-5.6,2.3-8.4
		s0.8-7.4,0.8-10.2s-1.5-4.1-3.6-7.4s-11-28.6-12.8-33.7c-3.5-11.3-6.3-22.8-8.4-34.5c-3.1-16.3-4.1-28.8-5.4-32.7
		s-6.9-22.5-6.9-25.2c0-0.3,0-0.6-0.1-0.9l0,0"/>
	<path class="st1" d="M71.3,255.7c-11.2,2.1-13.8,3.2-13,6.5c0.7,3.1,6.1,5.4,15.3,7.1c7.2,1.3,14.4,2.2,21.7,2.7
		c10.2,0.9,22,1.4,34.6,1.4c13.9,0.1,27.8-0.6,41.6-2.1c4.9-0.5,9.8-1.3,14.6-2.3c8.9-2,14-4.4,15.4-6.8s-1.3-5.3-13.1-7.3"/>
	<path class="st1" d="M94.1,88.8c-12,2.3-14.5,2.9-14,5.9s7.4,5.2,18.5,6.6c2.2,0.3,4.6,0.6,7.2,0.8c7.1,0.7,15.3,1.1,24,1.1
		c9.7,0,19.3-0.5,28.9-1.6c2.7-0.3,5.2-0.7,7.3-1.1c8-1.6,12.4-3.6,13.5-5.7s-1.8-4.9-15.2-6.4"/>
	<path class="st1" d="M33.4,170.1c-13.3,2.1-16.4,3.5-15.4,7c0.8,2.7,5.8,4.9,14.3,6.7c10,2.1,24.8,3.7,43.5,4.9
		c16,1,34.4,1.7,54,1.7c24.2,0,46.6-0.9,64.9-2.5c15.2-1.3,26.6-3.1,34.5-5.1c6.8-1.8,10.9-3.7,12.3-5.7c1.8-2.4-0.9-5.2-12.9-7.4"
		/>
	<path class="st1" d="M73.8,312.8c-8.8,1.9-10.9,3.1-10.3,6.2c0.5,2.4,3.7,4.3,9.1,5.9c5.9,1.7,14.5,3,25.2,4
		c9.5,0.9,20.4,1.4,32,1.4c12.9,0.1,25.7-0.6,38.5-2.1c8.9-1.1,15.7-2.6,20.3-4.3l0,0c4.1-1.5,6.5-3.2,7.4-4.8
		c1.1-2.1-0.7-4.6-8.8-6.6"/>
	<path class="st2" d="M65.1,217.9l-1.7-18.3c0-0.3-0.3-0.6-0.6-0.6c-0.3,0-0.6,0.3-0.6,0.6l-2,21.5"/>
	<path class="st0" d="M200.9,213.7l-1.9-12.7c0-0.3-0.3-0.6-0.6-0.6l0,0c-0.4,0-0.6,0.3-0.6,0.7l0,0l-1.2,14.9"/>
	<line class="st3" x1="44" y1="372.3" x2="58" y2="372.3"/>
	<line class="st4" x1="43.8" y1="656.4" x2="58" y2="656.4"/>
	<line class="st1" x1="51" y1="656.4" x2="51" y2="371.3"/>
	<line class="st1" x1="246.1" y1="129.2" x2="293.5" y2="350.6"/>
	<line class="st1" x1="236.9" y1="130.3" x2="257" y2="125.2"/>
	<line class="st1" x1="284.9" y1="351.8" x2="305" y2="346.7"/>
	<path class="st5" d="M94.9,106.7h1.3v12.8h-1.3V106.7z M95.9,118.3h3.5c0.8,0.1,1.7-0.1,2.4-0.6c0.5-0.4,0.8-1.1,0.7-1.7l0,0
		c0-0.5-0.1-0.9-0.3-1.3c-0.2-0.4-0.5-0.7-0.9-0.8c-0.5-0.2-1-0.3-1.5-0.3h-4v-1.2h4c0.7,0,1.3-0.2,1.9-0.6c0.4-0.4,0.7-1,0.6-1.6
		c0-0.6-0.2-1.3-0.7-1.7c-0.6-0.4-1.4-0.6-2.1-0.6h-3.7v-1.2h4c0.7,0,1.4,0.1,2.1,0.4c0.5,0.3,0.9,0.7,1.2,1.2
		c0.3,0.6,0.4,1.2,0.4,1.9c0,0.4-0.1,0.8-0.3,1.2c-0.2,0.4-0.5,0.7-0.8,1c-0.4,0.3-0.8,0.5-1.3,0.6c1,0.1,1.8,0.7,2.2,1.6
		c0.2,0.4,0.3,0.9,0.3,1.4l0,0c0,0.6-0.1,1.3-0.5,1.8c-0.3,0.5-0.8,0.9-1.3,1.2c-0.6,0.3-1.3,0.4-2,0.4h-4.1L95.9,118.3z"/>
	<path class="st5" d="M107.9,119.1c-0.6-0.3-1-0.8-1.3-1.4c-0.3-0.7-0.5-1.4-0.5-2.1V114c0-0.7,0.1-1.5,0.5-2.1
		c0.3-0.6,0.7-1,1.3-1.3c1.3-0.6,2.7-0.6,4,0c0.5,0.3,1,0.8,1.3,1.3c0.3,0.7,0.5,1.4,0.5,2.1v1.5c0,0.7-0.1,1.5-0.5,2.1
		c-0.3,0.6-0.7,1.1-1.3,1.4C110.7,119.6,109.2,119.6,107.9,119.1z M111.8,117.6c0.5-0.6,0.7-1.3,0.7-2v-1.5c0-0.7-0.2-1.4-0.7-2
		c-1-1-2.7-1-3.7,0c-0.5,0.6-0.7,1.3-0.7,2v1.6c0,0.7,0.2,1.4,0.7,2C109.2,118.6,110.8,118.6,111.8,117.6z"/>
	<path class="st5" d="M115.2,110.3h1.3l3,8.5l-0.7,1.4L115.2,110.3z M123.3,110.3l-3.9,11.3c-0.1,0.4-0.3,0.7-0.5,1
		c-0.2,0.2-0.5,0.4-0.8,0.5c-0.4,0.1-0.8,0.2-1.2,0.2h-0.4V122h0.4c0.4,0,0.8-0.1,1.1-0.3c0.3-0.3,0.6-0.7,0.7-1.1l3.4-10.3
		L123.3,110.3z"/>
	<path class="st5" d="M126.5,115.8c0,0.7,0.2,1.3,0.6,1.9c0.5,0.5,1.1,0.7,1.8,0.7c0.6,0,1.3-0.2,1.8-0.6c0.4-0.5,0.6-1.1,0.6-1.7
		l0.1,1.9c-0.2,0.5-0.6,0.9-1.1,1.1c-0.6,0.3-1.2,0.5-1.9,0.4c-0.9,0.1-1.7-0.3-2.3-1c-0.6-0.8-0.9-1.7-0.8-2.7v-5.6h1.3v5.6
		L126.5,115.8z M131.2,110.3h1.3v9.1h-1.3V110.3z"/>
	<path class="st5" d="M135.2,110.3h1.3v9.1h-1.3V110.3z M141.3,113.9c0-0.7-0.2-1.4-0.6-1.9c-1-0.8-2.4-0.9-3.5-0.1
		c-0.4,0.4-0.7,1.1-0.6,1.7l-0.2-1.8c0.3-0.6,0.7-1,1.3-1.3c0.6-0.3,1.2-0.4,1.9-0.4c0.9,0,1.7,0.3,2.3,1c0.6,0.8,0.9,1.8,0.8,2.8
		v5.5h-1.3L141.3,113.9L141.3,113.9z"/>
	<path class="st5" d="M87.8,176.9v1.9c0,0.9-0.1,1.8-0.5,2.7c-0.3,0.7-0.8,1.3-1.5,1.6c-0.8,0.4-1.6,0.6-2.5,0.6
		c-0.9,0-1.7-0.1-2.5-0.5c-0.7-0.3-1.2-0.8-1.5-1.5c-0.4-0.8-0.5-1.6-0.5-2.5v-3.8c0-0.9,0.1-1.8,0.5-2.7c0.3-0.7,0.8-1.3,1.5-1.6
		c0.8-0.4,1.6-0.6,2.5-0.5c0.7,0,1.4,0.1,2.1,0.4c0.6,0.3,1.1,0.7,1.5,1.3c0.4,0.6,0.7,1.4,0.8,2.1h-1.4c-0.1-0.5-0.3-1-0.6-1.5
		c-0.3-0.4-0.6-0.7-1-0.9c-0.4-0.2-0.9-0.3-1.4-0.3c-0.6,0-1.2,0.1-1.8,0.4c-0.5,0.3-0.9,0.7-1.1,1.2c-0.3,0.6-0.4,1.3-0.4,2v3.8
		c0,0.7,0.1,1.3,0.4,1.9c0.2,0.5,0.6,0.9,1.1,1.1c1.1,0.5,2.5,0.5,3.6,0c0.5-0.3,0.8-0.7,1-1.2c0.3-0.6,0.4-1.3,0.3-2v-0.7h-3.1
		v-1.3H87.8z"/>
	<path class="st5" d="M92,183.1c-0.6-0.3-1-0.8-1.3-1.4c-0.3-0.7-0.5-1.4-0.5-2.1v-1.5c0-0.7,0.1-1.5,0.5-2.1c0.3-0.6,0.7-1,1.3-1.3
		c1.3-0.6,2.8-0.6,4.1,0c0.5,0.3,1,0.8,1.3,1.3c0.3,0.7,0.5,1.4,0.5,2.1v1.5c0,0.7-0.1,1.5-0.5,2.1c-0.3,0.6-0.7,1.1-1.3,1.4
		C94.8,183.7,93.3,183.7,92,183.1z M95.8,181.7c0.5-0.6,0.7-1.3,0.7-2v-1.5c0-0.7-0.2-1.4-0.7-2c-1-1-2.7-1-3.7,0
		c-0.5,0.6-0.7,1.3-0.7,2v1.5c0,0.7,0.2,1.4,0.7,2C93.2,182.6,94.7,182.6,95.8,181.7L95.8,181.7z M91.8,171.2h1.3v1.3h-1.3
		L91.8,171.2z M94.9,171.2h1.3v1.3h-1.3V171.2z"/>
	<path class="st5" d="M101.6,183.1c-0.5-0.3-0.9-0.7-1.1-1.3c-0.3-0.6-0.4-1.3-0.4-2v-2c0-0.7,0.1-1.4,0.4-2c0.2-0.5,0.6-1,1-1.3
		c0.5-0.3,1.1-0.5,1.7-0.4c0.6,0,1.2,0.1,1.8,0.4c0.6,0.3,1,0.7,1.3,1.3l-0.2,1.8c0-0.4-0.1-0.8-0.3-1.1c-0.2-0.4-0.5-0.7-0.8-0.9
		c-1.1-0.7-2.6-0.4-3.3,0.7c-0.3,0.5-0.4,1-0.3,1.6v2c0,0.7,0.2,1.4,0.6,1.9c0.5,0.5,1.1,0.7,1.8,0.7c0.4,0,0.8-0.1,1.2-0.3
		c0.7-0.4,1.1-1.2,1.1-2l0.1,1.9c-0.2,0.5-0.6,0.9-1.1,1.2c-0.6,0.3-1.2,0.4-1.8,0.3C102.7,183.6,102.1,183.4,101.6,183.1z
		 M101.6,186.8c-0.5-0.2-1-0.6-1.3-1.1l0.9-0.8c0.3,0.3,0.6,0.6,1,0.8c0.4,0.2,0.8,0.3,1.2,0.3c1.3,0.2,2.5-0.8,2.7-2.1
		c0-0.2,0-0.4,0-0.6v-9h1.3v8.9c0,0.7-0.1,1.5-0.5,2.1c-0.3,0.6-0.7,1.1-1.3,1.4c-0.7,0.3-1.4,0.5-2.1,0.5
		C102.8,187.1,102.2,187,101.6,186.8z M101.7,171.8c-0.5-0.7-0.7-1.5-0.7-2.4h1.1c0,0.6,0.1,1.1,0.4,1.6c0.2,0.4,0.7,0.6,1.1,0.5
		h0.2c0.4,0,0.8-0.2,1.1-0.5c0.3-0.5,0.4-1,0.4-1.6h1.1c0.1,0.9-0.2,1.7-0.7,2.4c-0.5,0.6-1.2,0.9-2,0.8h-0.2
		C102.8,172.5,102.2,172.2,101.7,171.8z"/>
	<path class="st5" d="M111.4,179.9c0,0.7,0.2,1.3,0.6,1.9c0.5,0.5,1.1,0.7,1.8,0.7c0.6,0,1.3-0.2,1.8-0.6c0.4-0.5,0.6-1.1,0.6-1.7
		l0.1,1.9c-0.2,0.5-0.6,0.9-1.1,1.1c-0.6,0.3-1.2,0.5-1.9,0.5c-0.9,0.1-1.7-0.3-2.3-1c-0.6-0.8-0.9-1.7-0.8-2.7v-5.5h1.3v5.4
		L111.4,179.9z M111.6,171.2h1.3v1.3h-1.3V171.2z M114.7,171.2h1.3v1.3h-1.3V171.2z M116.2,174.3h1.3v9.2h-1.3V174.3z"/>
	<path class="st5" d="M122,183.5c-0.4-0.1-0.9-0.2-1.3-0.4c-0.4-0.2-0.8-0.4-1.1-0.7l0.7-0.9c0.5,0.3,1,0.6,1.5,0.8
		c0.5,0.2,1,0.3,1.5,0.3c0.7,0,1.4-0.1,2-0.4c0.4-0.3,0.7-0.8,0.7-1.3c0-0.3-0.1-0.6-0.3-0.9c-0.3-0.2-0.6-0.3-0.9-0.4
		c-0.5-0.1-1-0.1-1.5-0.2h-0.5c-0.5,0-1-0.1-1.5-0.3c-0.4-0.1-0.8-0.4-1-0.7c-0.3-0.4-0.5-0.9-0.4-1.4c0-0.5,0.1-1.1,0.4-1.5
		c0.3-0.4,0.7-0.7,1.2-0.9c0.6-0.2,1.3-0.3,2-0.3c0.4,0,0.8,0,1.2,0.1c0.4,0.1,0.8,0.2,1.2,0.4c0.4,0.1,0.7,0.3,1,0.5l-0.7,0.9
		c-0.4-0.2-0.9-0.4-1.3-0.6c-0.4-0.1-0.9-0.2-1.3-0.2c-0.6,0-1.2,0.1-1.8,0.4c-0.4,0.2-0.7,0.7-0.6,1.2c0,0.3,0.1,0.6,0.3,0.8
		c0.3,0.2,0.6,0.3,0.9,0.4c0.5,0.1,0.9,0.1,1.4,0.1h0.3c0.5,0,1.1,0.1,1.6,0.2c0.4,0.1,0.8,0.4,1.1,0.7c0.3,0.5,0.5,1,0.5,1.6
		c0,0.5-0.1,1.1-0.5,1.5c-0.3,0.5-0.8,0.8-1.3,1c-0.7,0.2-1.4,0.3-2.1,0.3C122.9,183.6,122.4,183.6,122,183.5z"/>
	<path class="st5" d="M83.5,254.7h1.3v12.8h-1.3V254.7z M84.5,266.3H88c0.8,0.1,1.7-0.1,2.4-0.6c0.5-0.4,0.8-1.1,0.7-1.7l0,0
		c0-0.5-0.1-0.9-0.3-1.3c-0.2-0.4-0.5-0.7-0.9-0.8c-0.5-0.2-1-0.3-1.5-0.3h-4v-1.2h4c0.7,0.1,1.4-0.1,1.9-0.6c0.5-0.4,0.7-1,0.6-1.6
		c0-0.6-0.2-1.3-0.7-1.7c-0.6-0.4-1.4-0.6-2.1-0.6h-3.7v-1.2h4c0.7,0,1.4,0.1,2.1,0.4c0.5,0.3,0.9,0.7,1.2,1.2
		c0.3,0.6,0.4,1.2,0.4,1.9c0,0.4-0.1,0.8-0.3,1.2c-0.2,0.4-0.5,0.7-0.8,1c-0.4,0.3-0.8,0.5-1.3,0.6c0.5,0.1,0.9,0.2,1.3,0.5
		c0.4,0.3,0.7,0.7,0.9,1.1c0.2,0.4,0.3,0.9,0.3,1.4l0,0c0,0.6-0.1,1.3-0.5,1.8c-0.3,0.5-0.8,0.9-1.3,1.2c-0.6,0.3-1.3,0.4-2,0.4
		h-3.8L84.5,266.3z"/>
	<path class="st5" d="M96.7,267.1c-0.6-0.3-1.1-0.8-1.4-1.4c-0.3-0.7-0.5-1.4-0.5-2.2v-1c0-0.8,0.1-1.6,0.5-2.3
		c0.3-0.6,0.7-1.1,1.3-1.5c0.6-0.4,1.4-0.5,2.1-0.5c0.7,0,1.4,0.1,2,0.5c0.5,0.3,1,0.8,1.2,1.4c0.3,0.7,0.4,1.5,0.4,2.3v1.1h-6.6
		v-1.1h5.5v-0.1c0-0.7-0.2-1.5-0.6-2.1c-0.4-0.5-1.1-0.8-1.8-0.7c-0.8-0.1-1.5,0.2-2,0.8c-0.5,0.6-0.7,1.4-0.7,2.2v1.2
		c0,0.8,0.2,1.5,0.7,2.1c0.6,0.5,1.3,0.8,2.1,0.8c0.4,0,0.8-0.1,1.2-0.3c0.4-0.2,0.8-0.4,1.1-0.7l0.9,0.8c-0.4,0.4-0.9,0.8-1.5,1
		c-0.6,0.2-1.1,0.3-1.7,0.4C98.1,267.7,97.3,267.5,96.7,267.1z"/>
	<path class="st5" d="M105.9,265.1c0,0.3,0.1,0.6,0.3,0.9c0.2,0.2,0.5,0.3,0.8,0.3h0.8v1.2h-1.1c-0.6,0-1.2-0.2-1.6-0.6
		c-0.4-0.5-0.6-1.1-0.6-1.8v-10.4h1.3L105.9,265.1z"/>
	<path class="st5" d="M90.4,316.1v1.9c0,0.9-0.1,1.8-0.5,2.7c-0.3,0.7-0.8,1.3-1.5,1.6c-0.8,0.4-1.6,0.6-2.5,0.5
		c-0.9,0-1.7-0.1-2.5-0.5c-0.7-0.3-1.2-0.8-1.5-1.5c-0.4-0.8-0.5-1.6-0.5-2.5v-3.8c0-0.9,0.1-1.8,0.5-2.7c0.3-0.7,0.8-1.3,1.5-1.6
		c0.8-0.4,1.6-0.5,2.5-0.5c0.7,0,1.4,0.1,2.1,0.4c0.6,0.3,1.1,0.7,1.5,1.3c0.4,0.6,0.7,1.4,0.8,2.1h-1.4c-0.1-0.5-0.3-1-0.6-1.5
		c-0.3-0.4-0.6-0.7-1-0.9c-0.4-0.2-0.9-0.3-1.4-0.3c-0.6,0-1.2,0.1-1.8,0.4c-0.5,0.3-0.9,0.7-1.1,1.2c-0.3,0.6-0.4,1.3-0.3,2v3.8
		c0,0.7,0.1,1.3,0.4,1.9c0.2,0.5,0.6,0.9,1.1,1.1c1.1,0.5,2.5,0.5,3.6,0c0.5-0.3,0.8-0.7,1-1.2c0.3-0.6,0.4-1.3,0.3-2v-0.7H86v-1.2
		L90.4,316.1z"/>
	<path class="st5" d="M94.5,322.3c-0.6-0.3-1-0.8-1.3-1.4c-0.3-0.7-0.5-1.4-0.4-2.1v-1.5c0-0.7,0.1-1.4,0.4-2.1
		c0.3-0.6,0.7-1.1,1.3-1.4c1.3-0.6,2.8-0.6,4.1,0c0.6,0.3,1,0.8,1.3,1.4c0.3,0.7,0.5,1.4,0.4,2.1v1.5c0,0.7-0.1,1.4-0.4,2.1
		c-0.3,0.6-0.7,1.1-1.3,1.4C97.3,322.9,95.8,322.9,94.5,322.3z M98.4,320.9c0.5-0.6,0.7-1.3,0.7-2v-1.5c0-0.7-0.2-1.4-0.7-2
		c-1-1-2.7-1-3.7,0c-0.5,0.6-0.7,1.3-0.7,2v1.5c-0.1,1.4,0.9,2.7,2.3,2.8C97.1,321.8,97.8,321.5,98.4,320.9z M94.4,310.4h1.3v1.3
		h-1.3V310.4z M97.5,310.4h1.3v1.3h-1.3V310.4z"/>
	<path class="st5" d="M102.8,309.8h1.3v12.8h-1.3V309.8z M105,322.4c-0.5-0.3-0.9-0.7-1.1-1.2l0.1-1.9c0,0.4,0.1,0.8,0.3,1.1
		c0.2,0.4,0.5,0.7,0.8,0.9c1,0.7,2.5,0.5,3.2-0.6c0.3-0.5,0.5-1.1,0.4-1.6v-2c0-0.7-0.2-1.4-0.6-2c-0.9-0.9-2.4-1-3.4-0.1
		c-0.2,0.2-0.3,0.4-0.4,0.6c-0.2,0.3-0.3,0.7-0.3,1.1l-0.2-1.8c0.3-0.5,0.8-1,1.3-1.3c0.6-0.3,1.2-0.4,1.8-0.4
		c0.6,0,1.2,0.1,1.7,0.4c0.5,0.3,0.8,0.8,1,1.3c0.3,0.6,0.4,1.3,0.4,2v2c0,0.7-0.1,1.4-0.4,2c-0.2,0.5-0.6,1-1.1,1.3
		c-0.5,0.3-1.1,0.5-1.7,0.4C106.2,322.7,105.5,322.7,105,322.4L105,322.4z"/>
	<path class="st5" d="M114.1,322.3c-0.6-0.3-1.1-0.8-1.4-1.4c-0.3-0.7-0.5-1.4-0.5-2.2v-1c0-0.8,0.1-1.6,0.5-2.3
		c0.3-0.6,0.7-1.1,1.3-1.5c0.7-0.3,1.4-0.5,2.1-0.5c0.7,0,1.4,0.1,2,0.5c0.6,0.3,1,0.8,1.2,1.4c0.3,0.7,0.4,1.5,0.4,2.3v1h-6.6v-1.1
		h5.4v-0.1c0-0.7-0.2-1.5-0.6-2.1c-0.4-0.5-1.1-0.8-1.8-0.7c-0.8-0.1-1.5,0.2-2,0.8c-0.5,0.6-0.7,1.4-0.7,2.2v1.2
		c0,0.8,0.2,1.5,0.7,2.1c0.6,0.5,1.3,0.8,2.1,0.8c0.4,0,0.8-0.1,1.2-0.3c0.4-0.2,0.8-0.4,1.1-0.8l0.9,0.8c-0.4,0.4-0.9,0.8-1.5,1
		c-0.5,0.2-1.1,0.4-1.7,0.4C115.4,322.8,114.7,322.6,114.1,322.3z"/>
	<path class="st5" d="M122.1,309.8h1.3v12.8h-1.3V309.8z M123,319.5l5.2-6h1.5l-6.9,7.8L123,319.5z M125.6,317.7l0.7-1.2l3.8,6.1
		h-1.5L125.6,317.7z"/>
	<path class="st5" d="M0,477.2h1.3V490H0V477.2z M1.1,488.8h3.5c0.8,0.1,1.7-0.1,2.4-0.6c0.5-0.4,0.8-1,0.8-1.7l0,0
		c0-0.5-0.1-0.9-0.3-1.3c-0.2-0.4-0.5-0.7-0.9-0.8c-0.5-0.2-1-0.3-1.5-0.3h-4v-1.2H5c0.7,0.1,1.4-0.1,1.9-0.5
		c0.5-0.4,0.7-1.1,0.6-1.7c0.1-0.6-0.2-1.3-0.7-1.7c-0.6-0.4-1.4-0.6-2.1-0.6H1.1v-1.2h4c0.7,0,1.4,0.1,2.1,0.4
		c0.5,0.3,0.9,0.7,1.2,1.2c0.3,0.6,0.4,1.2,0.4,1.8c0,0.4-0.1,0.8-0.2,1.2c-0.2,0.4-0.5,0.7-0.8,1c-0.4,0.3-0.8,0.5-1.3,0.5
		c1,0.1,1.8,0.7,2.2,1.6c0.2,0.4,0.3,0.9,0.3,1.4l0,0c0,0.6-0.1,1.3-0.5,1.8c-0.3,0.5-0.8,0.9-1.3,1.2c-0.6,0.3-1.3,0.4-2,0.4H1.1
		V488.8z"/>
	<path class="st5" d="M12,489.4c-0.6-0.5-0.9-1.3-0.9-2.1c0-0.7,0.3-1.5,0.8-2c0.6-0.5,1.5-0.8,2.3-0.7h3l0.1,1.2h-3.1
		c-0.5,0-1,0.1-1.4,0.4c-0.6,0.6-0.6,1.5-0.1,2.2l0.2,0.2c0.5,0.3,1.1,0.5,1.7,0.4c0.6,0,1.2,0,1.8-0.2c0.4-0.2,0.7-0.4,0.7-0.7
		l0.2,1.2c-0.2,0.2-0.4,0.4-0.7,0.5c-0.3,0.1-0.7,0.2-1,0.3c-0.4,0.1-0.8,0.1-1.2,0.1C13.5,490.2,12.7,489.9,12,489.4z M17.2,484.2
		c0-0.6-0.2-1.2-0.6-1.7c-0.4-0.4-1.1-0.7-1.7-0.6c-0.4,0-0.9,0.1-1.3,0.2c-0.4,0.1-0.8,0.3-1.1,0.6l-0.9-0.6c0.4-0.4,0.9-0.8,1.4-1
		c0.6-0.3,1.3-0.4,1.9-0.3c0.7,0,1.4,0.1,2,0.4c0.5,0.3,0.9,0.7,1.2,1.2c0.3,0.6,0.4,1.2,0.4,1.8v5.8h-1.3V484.2z"/>
	<path class="st5" d="M22.6,489.7c-0.6-0.3-1-0.7-1.3-1.3c-0.3-0.7-0.5-1.4-0.4-2.2v-1.5c0-0.8,0.1-1.5,0.4-2.2
		c0.3-0.5,0.8-1,1.3-1.3c0.7-0.3,1.4-0.5,2.2-0.4c0.5,0,0.9,0.1,1.4,0.2c0.4,0.1,0.8,0.3,1.1,0.5c0.3,0.2,0.6,0.5,0.8,0.8l-0.9,0.8
		c-0.3-0.3-0.6-0.6-1-0.8c-0.4-0.2-0.9-0.3-1.3-0.2c-0.7,0-1.4,0.2-2,0.7c-0.5,0.6-0.7,1.3-0.7,2.1v1.5c-0.1,0.8,0.2,1.5,0.7,2.1
		c0.6,0.5,1.3,0.7,2,0.7c0.9,0,1.8-0.4,2.5-1.1l0.8,0.8c-0.2,0.3-0.5,0.6-0.8,0.8c-0.3,0.2-0.7,0.4-1.1,0.5
		c-0.5,0.1-0.9,0.2-1.4,0.2C24.1,490.2,23.3,490,22.6,489.7z"/>
	<path class="st5" d="M30.8,489.4c-1.1-1.1-1.2-2.9-0.1-4.1c0.6-0.5,1.5-0.8,2.3-0.7h3l0.1,1.2H33c-0.5,0-0.9,0.1-1.3,0.4
		c-0.3,0.3-0.5,0.7-0.5,1.1c0,0.5,0.2,0.9,0.6,1.2c0.5,0.3,1.1,0.5,1.7,0.4c0.6,0,1.2,0,1.8-0.2c0.4-0.2,0.7-0.4,0.7-0.7l0.2,1.2
		c-0.2,0.2-0.4,0.4-0.7,0.5c-0.3,0.1-0.7,0.2-1,0.3c-0.4,0.1-0.8,0.1-1.2,0.1C32.4,490.2,31.5,490,30.8,489.4z M36,484.2
		c0-0.6-0.2-1.2-0.6-1.7c-0.4-0.4-1.1-0.7-1.7-0.6c-0.4,0-0.9,0.1-1.3,0.2c-0.4,0.1-0.8,0.3-1.1,0.6l-0.9-0.6c0.4-0.4,0.9-0.8,1.4-1
		c0.6-0.3,1.3-0.4,1.9-0.3c0.7,0,1.3,0.1,1.9,0.4c0.5,0.3,0.9,0.7,1.2,1.2c0.3,0.6,0.4,1.2,0.4,1.8v5.8H36L36,484.2z"/>
	<path class="st5" d="M40,477.2h1.3V490H40V477.2z M40.9,486.9l5.2-6h1.5l-6.9,7.8L40.9,486.9z M43.5,485l0.7-1.2l3.8,6.1h-1.5
		L43.5,485z"/>
	<path class="st5" d="M279.8,223.3h1.3v12.8h-1.3V223.3z M280.4,232.2l7-8.9h1.6l-8.1,9.9L280.4,232.2z M284,229.3l0.7-1.3l4.8,8.1
		H288L284,229.3z"/>
	<path class="st5" d="M292.6,235.8c-0.6-0.3-1-0.8-1.3-1.4c-0.3-0.7-0.5-1.4-0.4-2.1v-1.5c0-0.7,0.1-1.4,0.4-2.1
		c0.3-0.6,0.7-1.1,1.3-1.4c1.3-0.6,2.8-0.6,4.1,0c0.6,0.3,1,0.8,1.3,1.4c0.3,0.7,0.5,1.4,0.4,2.1v1.5c0,0.7-0.1,1.4-0.4,2.1
		c-0.3,0.6-0.7,1.1-1.3,1.4C295.4,236.4,293.9,236.4,292.6,235.8z M296.4,234.3c0.5-0.6,0.7-1.3,0.7-2v-1.5c0-0.7-0.2-1.4-0.7-2
		c-0.5-0.5-1.1-0.8-1.8-0.7c-0.7,0-1.3,0.2-1.8,0.7c-0.5,0.6-0.7,1.3-0.7,2v1.5c0,0.7,0.2,1.4,0.7,2c0.4,0.5,1.1,0.8,1.8,0.7
		C295.2,235.1,295.9,234.8,296.4,234.3z"/>
	<path class="st5" d="M302.1,233.7c0,0.3,0.1,0.6,0.3,0.9c0.2,0.2,0.5,0.3,0.8,0.3h0.8v1.2h-1c-0.6,0-1.2-0.2-1.6-0.6
		c-0.4-0.5-0.6-1.1-0.6-1.8v-10.4h1.3L302.1,233.7z"/>
</g>
</svg>
