<svg xmlns="http://www.w3.org/2000/svg" xmlns:xlink="http://www.w3.org/1999/xlink" width="9" height="137" viewBox="0 0 9 137"><defs><linearGradient id="a" x1="0.5" x2="0.5" y2="1" gradientUnits="objectBoundingBox"><stop offset="0" stop-color="#6f62e8"/><stop offset="1" stop-color="#402483"/><stop offset="1" stop-color="#6326b5"/></linearGradient></defs><g transform="translate(-5)"><path d="M4.5,0A4.5,4.5,0,0,1,9,4.5v128a4.5,4.5,0,0,1-9,0V4.5A4.5,4.5,0,0,1,4.5,0Z" transform="translate(5)" fill="url(#a)"/><path d="M4.5,1A3.5,3.5,0,0,0,1,4.5v128a3.5,3.5,0,0,0,7,0V4.5A3.5,3.5,0,0,0,4.5,1m0-1A4.5,4.5,0,0,1,9,4.5v128a4.5,4.5,0,0,1-9,0V4.5A4.5,4.5,0,0,1,4.5,0Z" transform="translate(5)" fill="#3b3b3b"/></g></svg>