<svg xmlns="http://www.w3.org/2000/svg" xmlns:xlink="http://www.w3.org/1999/xlink" viewBox="0 0 238.73 45.13"><defs><style>.cls-1{isolation:isolate;}.cls-2{mix-blend-mode:multiply;opacity:0.6;fill:url(#radial-gradient);}.cls-3{fill:url(#radial-gradient-2);}.cls-4{fill:url(#radial-gradient-3);}</style><radialGradient id="radial-gradient" cx="-43.82" cy="42.14" r="117.76" gradientTransform="matrix(1, 0, 0, 0.17, 193.01, 219.07)" gradientUnits="userSpaceOnUse"><stop offset="0.79" stop-color="#c6c6c6"/><stop offset="0.87" stop-color="#e2e2e2"/><stop offset="0.95" stop-color="#f7f7f7"/><stop offset="1" stop-color="#fff"/></radialGradient><radialGradient id="radial-gradient-2" cx="-1724.15" cy="-1551.65" r="140.64" gradientTransform="matrix(-1, 0, 0, -0.2, -1575.57, -92.21)" gradientUnits="userSpaceOnUse"><stop offset="0.19" stop-color="#fff"/><stop offset="0.59" stop-color="#ececec"/><stop offset="0.78" stop-color="#d9d9d9"/><stop offset="1" stop-color="#bebebe"/></radialGradient><radialGradient id="radial-gradient-3" cx="150.44" cy="327.71" r="96.58" gradientTransform="translate(0 -35.19) scale(1 0.7)" xlink:href="#radial-gradient-2"/></defs><g class="cls-1"><g id="Design"><path class="cls-2" d="M268.55,226.35c0,11-53.45,19.87-119.37,19.87S29.81,237.33,29.81,226.35,83.25,206.5,149.18,206.5,268.55,215.39,268.55,226.35Z" transform="translate(-29.81 -201.09)"/><path class="cls-3" d="M50.22,217.64c0-9.14,44.54-16.55,99.48-16.55s99.48,7.41,99.48,16.55-44.54,16.55-99.48,16.55S50.22,226.78,50.22,217.64Z" transform="translate(-29.81 -201.09)"/><path class="cls-4" d="M50.22,224.35c0,9.14,44.54,16.56,99.48,16.56s99.48-7.42,99.48-16.56v-6.71c0,9.14-44.54,16.55-99.48,16.55s-99.48-7.41-99.48-16.55Z" transform="translate(-29.81 -201.09)"/></g></g></svg>