<svg id="Layer_1" data-name="Layer 1" xmlns="http://www.w3.org/2000/svg" viewBox="0 0 305.32 714.79"><defs><style>.cls-1,.cls-2,.cls-3,.cls-4,.cls-5{fill:none;}.cls-1,.cls-3{stroke:#333;stroke-width:2px;}.cls-1,.cls-2,.cls-5{stroke-miterlimit:10;}.cls-2,.cls-4,.cls-5{stroke:#7a6fb9;stroke-width:3px;}.cls-3,.cls-4,.cls-5{stroke-linecap:round;}.cls-3,.cls-4{stroke-linejoin:round;}.cls-6{fill:#231f20;}</style></defs><g id="Layer_2" data-name="Layer 2"><path class="cls-1" d="M199.81,217.09c-1.1,3.7-3.5,13.1-7.6,28.5l-.9,3.9a135.2,135.2,0,0,0-2.2,14.2,210.78,210.78,0,0,0,.3,43.5c.2,1.8.5,4.1.9,6.8.4,3.3.9,7.2,1.4,11.4h0c2.3,19.5,5.4,46,6.2,54.8,1,12.3,1,29.4.5,51.3-4.1,40.9-3.8,77.9.3,104.4s.2,42.6,0,47.7-7.4,22.5-12,38.6-5.4,34.3-4.7,38.5,1.7,3.4,3.6,7.3.2,3.4,0,5.3.7,11.2,1.2,15.2,2.4,1.9,6,11.1-2.4,6.6-2.4,6.6c-1.5,6.3-5.3,2.4-5.3,2.4-1.9,6.6-7.3,2.5-7.3,2.5-3.2,6.6-8.8,1.5-8.8,1.5-9.9,7.3-11.4-2.6-11.9-7.3s.2-10.7-.3-14.6.5-28.1,1.7-33.9c4.4-11.2,4.6-39.5,4.6-44.6-5.4-20.4-4.3-41.4-3.6-57.2s0-25.3-3.8-34.5-5.6-30.9-5.6-30.9c-2.5-11.5-14.4-104.5-14.4-104.5h-4.8l-3.1,22.8c-3.1,22.8-5.6,53.5-6.3,59.9s-1.7,7.7-3.1,12.2-3.1,25.7-5.8,37.6-4.4,24.5-3.9,33.5-1.2,40.3-4.1,52.9-2.2,22-1.7,30.6,3.3,15.7,4.8,21.3a28.22,28.22,0,0,1,1.3,8.7s-.1,25.9.4,28.8.2,7.2.4,10.3-1.5,8-1.5,8c-5,8.4-11.4-.2-11.4-.2-4.8,6.6-8.2-1-8.2-1-5.4,5-8.2-1.5-8.2-1.5-4.8,1.8-4.1-2.5-4.1-2.5h-2c-1.3,0-1.4-1.9-1.3-3.7a10.31,10.31,0,0,1,1.4-4.5c1-1.9,4.2-11.5,5.4-13.5s1-9.2.6-11a16.82,16.82,0,0,1,.4-5.9c.3-1.7,1.2-2.7,2.4-5.4s.8-8.3,0-11.9-2-14.3-2.8-20.2-10-35.7-13.8-51.3,2.5-42.4,5.4-52.3,1.8-35,1.5-39.1-5.1-81.4-4.1-94c.7-8.4,3.7-41.4,6.3-67.3.4-4.2.8-8.3,1.2-12,.8-7.5,1.4-13.7,1.9-17.4,1.2-9.3-.5-22.6-2.2-33.1-.9-5.8-1.8-10.7-2.3-13.6a14.87,14.87,0,0,1-.3-2.5c-.1-3.4-3.5-20.4-5.9-28.3" transform="translate(-3.05 -1.58)"/><path class="cls-1" d="M63.21,222.29c-1.7,5.6-8.3,24.3-8.3,28.5,0,4.6-2.4,22.5-5.3,34.2s-8,29-14.7,43.8-7.9,23.5-7.3,29.8,3.5,8.3,4.3,10.8a28.21,28.21,0,0,1,.8,6.5s-.7,24.8-.4,27.8-2.1,3.2-3.4,3.3c-2-.3-2-4.4-2-4.4-.1-15.6-3.7-15.9-5.8-15.9-3.2,0-3.2,5.1-3.2,6.4-1,6,7.2,14.6,7.2,14.6,2.2,2.6,8.3,3.3,9.3,5.1s-.4,2.4-1.2,2.8-10-2-11.1-2.3c-6.4-1.5-12.1-12.2-14.4-17a9,9,0,0,1-.9-4.6c.2-3.5.5-10.2.6-16.1.1-8.3,2.3-31.4,2.8-37.5s.8-21.7,2-44.7,13-59.9,14.7-65.5,6.8-30.4,7.7-37.7c.2-1.9.5-4.2.8-6.9.3-3.3.7-7.2,1-11.6.5-6.2,1-13.6,1.5-21.9,1.2-19.3,14.2-25.9,17.1-26.6,6.8-1.4,22.8-6.8,26.9-10.1,2.7-2.2,12.6-7,19.7-10.3,3.6-1.7,6.4-3,7.2-3.4,2.2-1.1,2-2.9,4.2-5.9s.4-7.3,0-8.3c-7.4-12.1-5.2-20-5.2-20s-.4.9-4-.1-4.2-12.6-3.7-15.1,2.4-1.4,2.4-1.4c-1.3-5.6-1.3-19.5-1.2-21.3,5.1-25.6,32.6-24.7,33.5-24.7,27.4,2,29.9,24.8,29.9,24.8v18.7s1.2.6,2.7,3.2-.2,6.3-1.4,8.8-5.6,5.2-5.6,5.2l-.3,3.6s-.5,3.8-.5,5.4a14.75,14.75,0,0,1-1.3,5.1,26.55,26.55,0,0,1-3.1,6.6c-1.8,2.8-.3,3.6.2,7.1.2,1.5,5.9,5.9,13.3,10.8,10.6,7.1,24.7,15.4,30.6,17.5,10,3.6,14,2.3,22.5,9.7,7.8,6.9,9.2,24.9,9.5,42.1v4.1a54.92,54.92,0,0,0,.5,7c2.5,21.1,13.6,58.7,16.8,69.6,3.6,12.3,6.9,36.8,6.6,42.6s2.6,52.8,3,61.1,2.7,17,3.8,25.7-1,13.4-1,13.4c-2.7,9.3-10.3,15.3-13.3,17.7s-5.6,2.5-10.5,2.7-4.1-2.4-2.7-3.8,3.6-2,5.9-2.7c10.5-4.2,9.4-16.1,9.4-17.9-3.8-9.8-8.3,0-8.3,0-.5,2,.1,7.9,0,11.5s-1.7,4.3-4,4.5-3.1-5.2-3.1-5.2v-14.3c0-1.8-.3-6.9,0-11,.2-3,2-5.1,3.1-8.9s1.5-5.6,2.3-8.4.8-7.4.8-10.2-1.5-4.1-3.6-7.4-11-28.6-12.8-33.7a289.14,289.14,0,0,1-8.4-34.5c-3.1-16.3-4.1-28.8-5.4-32.7s-6.9-22.5-6.9-25.2a2.77,2.77,0,0,0-.1-.9h0" transform="translate(-3.05 -1.58)"/><path class="cls-2" d="M74.31,257.29c-11.2,2.1-13.8,3.2-13,6.5.7,3.1,6.1,5.4,15.3,7.1a212.89,212.89,0,0,0,21.7,2.7c10.2.9,22,1.4,34.6,1.4a361.07,361.07,0,0,0,41.6-2.1,143,143,0,0,0,14.6-2.3c8.9-2,14-4.4,15.4-6.8s-1.3-5.3-13.1-7.3" transform="translate(-3.05 -1.58)"/><path class="cls-2" d="M97.11,90.39c-12,2.3-14.5,2.9-14,5.9s7.4,5.2,18.5,6.6c2.2.3,4.6.6,7.2.8,7.1.7,15.3,1.1,24,1.1a253.19,253.19,0,0,0,28.9-1.6c2.7-.3,5.2-.7,7.3-1.1,8-1.6,12.4-3.6,13.5-5.7s-1.8-4.9-15.2-6.4" transform="translate(-3.05 -1.58)"/><path class="cls-2" d="M36.41,171.69c-13.3,2.1-16.4,3.5-15.4,7,.8,2.7,5.8,4.9,14.3,6.7,10,2.1,24.8,3.7,43.5,4.9,16,1,34.4,1.7,54,1.7,24.2,0,46.6-.9,64.9-2.5,15.2-1.3,26.6-3.1,34.5-5.1q10.2-2.7,12.3-5.7c1.8-2.4-.9-5.2-12.9-7.4" transform="translate(-3.05 -1.58)"/><path class="cls-2" d="M76.81,314.39c-8.8,1.9-10.9,3.1-10.3,6.2.5,2.4,3.7,4.3,9.1,5.9,5.9,1.7,14.5,3,25.2,4,9.5.9,20.4,1.4,32,1.4a309.43,309.43,0,0,0,38.5-2.1c8.9-1.1,15.7-2.6,20.3-4.3h0c4.1-1.5,6.5-3.2,7.4-4.8,1.1-2.1-.7-4.6-8.8-6.6" transform="translate(-3.05 -1.58)"/><path class="cls-3" d="M68.11,219.49l-1.7-18.3a.6.6,0,0,0-1.2,0l-2,21.5" transform="translate(-3.05 -1.58)"/><path class="cls-1" d="M204,215.29l-1.9-12.7a.65.65,0,0,0-.6-.6h0a.67.67,0,0,0-.6.7h0l-1.2,14.9" transform="translate(-3.05 -1.58)"/><line class="cls-4" x1="43.95" y1="372.3" x2="58.05" y2="372.3"/><line class="cls-5" x1="43.85" y1="656.4" x2="57.95" y2="656.4"/><line class="cls-2" x1="50.95" y1="656.4" x2="50.95" y2="371.3"/><line class="cls-2" x1="246.05" y1="129.2" x2="293.55" y2="350.6"/><line class="cls-2" x1="236.95" y1="130.3" x2="257.05" y2="125.2"/><line class="cls-2" x1="284.85" y1="351.8" x2="304.95" y2="346.7"/><path class="cls-6" d="M98,108.29h1.3v12.8H98Zm1,11.6h3.5a3.48,3.48,0,0,0,2.4-.6,1.9,1.9,0,0,0,.7-1.7h0a3.08,3.08,0,0,0-.3-1.3,1.42,1.42,0,0,0-.9-.8,4,4,0,0,0-1.5-.3h-4V114h4a3.29,3.29,0,0,0,1.9-.6,1.91,1.91,0,0,0,.6-1.6,2.19,2.19,0,0,0-.7-1.7,3.7,3.7,0,0,0-2.1-.6h-3.7v-1.2h4a5.22,5.22,0,0,1,2.1.4,2.78,2.78,0,0,1,1.2,1.2,4.06,4.06,0,0,1,.4,1.9,2.66,2.66,0,0,1-.3,1.2,2.54,2.54,0,0,1-.8,1,3.1,3.1,0,0,1-1.3.6,2.65,2.65,0,0,1,2.2,1.6,3.19,3.19,0,0,1,.3,1.4h0a2.9,2.9,0,0,1-.5,1.8,3,3,0,0,1-1.3,1.2,4.48,4.48,0,0,1-2,.4h-4.1Z" transform="translate(-3.05 -1.58)"/><path class="cls-6" d="M111,120.69a3,3,0,0,1-1.3-1.4,5.37,5.37,0,0,1-.5-2.1v-1.6a3.84,3.84,0,0,1,.5-2.1,2.74,2.74,0,0,1,1.3-1.3,4.67,4.67,0,0,1,4,0,3.25,3.25,0,0,1,1.3,1.3,5.37,5.37,0,0,1,.5,2.1v1.5a3.84,3.84,0,0,1-.5,2.1,3.48,3.48,0,0,1-1.3,1.4,5.06,5.06,0,0,1-4,.1Zm3.9-1.5a3.06,3.06,0,0,0,.7-2v-1.5a3.06,3.06,0,0,0-.7-2,2.66,2.66,0,0,0-3.7,0,3.06,3.06,0,0,0-.7,2v1.6a3.06,3.06,0,0,0,.7,2,2.76,2.76,0,0,0,3.7-.1Z" transform="translate(-3.05 -1.58)"/><path class="cls-6" d="M118.21,111.89h1.3l3,8.5-.7,1.4Zm8.1,0-3.9,11.3a3.13,3.13,0,0,1-.5,1,2.18,2.18,0,0,1-.8.5,5,5,0,0,1-1.2.2h-.4v-1.3h.4a2,2,0,0,0,1.1-.3,2.59,2.59,0,0,0,.7-1.1l3.4-10.3Z" transform="translate(-3.05 -1.58)"/><path class="cls-6" d="M129.51,117.39a3.29,3.29,0,0,0,.6,1.9,2.41,2.41,0,0,0,1.8.7,3,3,0,0,0,1.8-.6,2.24,2.24,0,0,0,.6-1.7l.1,1.9a2,2,0,0,1-1.1,1.1,3.13,3.13,0,0,1-1.9.4,2.76,2.76,0,0,1-2.3-1,3.91,3.91,0,0,1-.8-2.7v-5.6h1.3v5.6Zm4.7-5.5h1.3V121h-1.3Z" transform="translate(-3.05 -1.58)"/><path class="cls-6" d="M138.21,111.89h1.3V121h-1.3Zm6.1,3.6a3.08,3.08,0,0,0-.6-1.9,2.85,2.85,0,0,0-3.5-.1,2.11,2.11,0,0,0-.6,1.7l-.2-1.8a2.74,2.74,0,0,1,1.3-1.3,4.06,4.06,0,0,1,1.9-.4,2.9,2.9,0,0,1,2.3,1,4,4,0,0,1,.8,2.8V121h-1.3v-5.5Z" transform="translate(-3.05 -1.58)"/><path class="cls-6" d="M105,179.59v1.9a6.46,6.46,0,0,1-.5,2.7,3.32,3.32,0,0,1-1.5,1.6,5.42,5.42,0,0,1-2.5.6,5.34,5.34,0,0,1-2.5-.5,2.76,2.76,0,0,1-1.5-1.5,5.34,5.34,0,0,1-.5-2.5v-3.8a6.18,6.18,0,0,1,.5-2.7,3.32,3.32,0,0,1,1.5-1.6,4.34,4.34,0,0,1,2.5-.5,4.92,4.92,0,0,1,2.1.4,3.74,3.74,0,0,1,1.5,1.3,5.39,5.39,0,0,1,.8,2.1h-1.4a4.71,4.71,0,0,0-.6-1.5,2.84,2.84,0,0,0-1-.9,3.19,3.19,0,0,0-1.4-.3,3.92,3.92,0,0,0-1.8.4,2.54,2.54,0,0,0-1.1,1.2,4.48,4.48,0,0,0-.4,2v3.8a4.33,4.33,0,0,0,.4,1.9,2,2,0,0,0,1.1,1.1,4.25,4.25,0,0,0,3.6,0,2.34,2.34,0,0,0,1-1.2,4.43,4.43,0,0,0,.3-2v-.7h-3.1v-1.3Z" transform="translate(-3.05 -1.58)"/><path class="cls-6" d="M109.21,185.79a3,3,0,0,1-1.3-1.4,5.37,5.37,0,0,1-.5-2.1v-1.5a3.84,3.84,0,0,1,.5-2.1,2.74,2.74,0,0,1,1.3-1.3,4.89,4.89,0,0,1,4.1,0,3.25,3.25,0,0,1,1.3,1.3,5.37,5.37,0,0,1,.5,2.1v1.5a3.84,3.84,0,0,1-.5,2.1,3.48,3.48,0,0,1-1.3,1.4A4.89,4.89,0,0,1,109.21,185.79Zm3.8-1.4a3.06,3.06,0,0,0,.7-2v-1.5a3.06,3.06,0,0,0-.7-2,2.66,2.66,0,0,0-3.7,0,3.06,3.06,0,0,0-.7,2v1.5a3.06,3.06,0,0,0,.7,2A2.87,2.87,0,0,0,113,184.39Zm-4-10.5h1.3v1.3H109Zm3.1,0h1.3v1.3h-1.3Z" transform="translate(-3.05 -1.58)"/><path class="cls-6" d="M118.81,185.79a2.37,2.37,0,0,1-1.1-1.3,4.48,4.48,0,0,1-.4-2v-2a4.48,4.48,0,0,1,.4-2,3.25,3.25,0,0,1,1-1.3,2.54,2.54,0,0,1,1.7-.4,3.66,3.66,0,0,1,1.8.4,2.74,2.74,0,0,1,1.3,1.3l-.2,1.8a2,2,0,0,0-.3-1.1,2.36,2.36,0,0,0-.8-.9,2.36,2.36,0,0,0-3.6,2.3v2a3.08,3.08,0,0,0,.6,1.9,2.41,2.41,0,0,0,1.8.7,2.38,2.38,0,0,0,1.2-.3,2.31,2.31,0,0,0,1.1-2l.1,1.9a2.54,2.54,0,0,1-1.1,1.2,2.89,2.89,0,0,1-1.8.3A2.62,2.62,0,0,1,118.81,185.79Zm0,3.7a3.34,3.34,0,0,1-1.3-1.1l.9-.8a3.92,3.92,0,0,0,1,.8,2.66,2.66,0,0,0,1.2.3,2.44,2.44,0,0,0,2.7-2.7v-9h1.3v8.9a3.84,3.84,0,0,1-.5,2.1,3.53,3.53,0,0,1-1.3,1.4,5.37,5.37,0,0,1-2.1.5,5.85,5.85,0,0,1-1.9-.4Zm.1-15a4,4,0,0,1-.7-2.4h1.1a3.17,3.17,0,0,0,.4,1.6,1.07,1.07,0,0,0,1.1.5h.2a1.43,1.43,0,0,0,1.1-.5,2.93,2.93,0,0,0,.4-1.6h1.1a3.56,3.56,0,0,1-.7,2.4,2.44,2.44,0,0,1-2,.8h-.2a2.69,2.69,0,0,1-1.8-.8Z" transform="translate(-3.05 -1.58)"/><path class="cls-6" d="M128.61,182.59a3.29,3.29,0,0,0,.6,1.9,2.41,2.41,0,0,0,1.8.7,3,3,0,0,0,1.8-.6,2.24,2.24,0,0,0,.6-1.7l.1,1.9a2.35,2.35,0,0,1-1.1,1.1,4.14,4.14,0,0,1-1.9.5,2.76,2.76,0,0,1-2.3-1,3.91,3.91,0,0,1-.8-2.7v-5.5h1.3v5.4Zm.2-8.7h1.3v1.3h-1.3Zm3.1,0h1.3v1.3h-1.3Zm1.5,3.1h1.3v9.2h-1.3Z" transform="translate(-3.05 -1.58)"/><path class="cls-6" d="M139.21,186.19a6.47,6.47,0,0,1-1.3-.4,6.73,6.73,0,0,1-1.1-.7l.7-.9a10.93,10.93,0,0,0,1.5.8,4,4,0,0,0,1.5.3,4.48,4.48,0,0,0,2-.4,1.56,1.56,0,0,0,.7-1.3,1.4,1.4,0,0,0-.3-.9,3.55,3.55,0,0,0-.9-.4c-.5-.1-1-.1-1.5-.2H140a4,4,0,0,1-1.5-.3,1.69,1.69,0,0,1-1-.7,1.79,1.79,0,0,1-.4-1.4,2.6,2.6,0,0,1,.4-1.5,2.55,2.55,0,0,1,1.2-.9,6.45,6.45,0,0,1,2-.3,4.87,4.87,0,0,1,1.2.1,5.64,5.64,0,0,1,1.2.4,3.13,3.13,0,0,1,1,.5l-.7.9c-.4-.2-.9-.4-1.3-.6a5.85,5.85,0,0,0-1.3-.2,3.92,3.92,0,0,0-1.8.4,1.22,1.22,0,0,0-.6,1.2,1.14,1.14,0,0,0,.3.8,2.47,2.47,0,0,0,.9.4,5.31,5.31,0,0,0,1.4.1h.3a8.75,8.75,0,0,1,1.6.2,2.59,2.59,0,0,1,1.1.7,3,3,0,0,1,.5,1.6,2.1,2.1,0,0,1-.5,1.5,2.56,2.56,0,0,1-1.3,1,5.11,5.11,0,0,1-2.1.3A3.33,3.33,0,0,1,139.21,186.19Z" transform="translate(-3.05 -1.58)"/><path class="cls-6" d="M100.41,257.19h1.3V270h-1.3Zm1,11.6h3.5a3.48,3.48,0,0,0,2.4-.6,1.9,1.9,0,0,0,.7-1.7h0a3.08,3.08,0,0,0-.3-1.3,1.42,1.42,0,0,0-.9-.8,4,4,0,0,0-1.5-.3h-4v-1.2h4a2.31,2.31,0,0,0,1.9-.6,1.66,1.66,0,0,0,.6-1.6,2.19,2.19,0,0,0-.7-1.7,3.7,3.7,0,0,0-2.1-.6h-3.7v-1.2h4a5.22,5.22,0,0,1,2.1.4,2.78,2.78,0,0,1,1.2,1.2,4.06,4.06,0,0,1,.4,1.9,2.66,2.66,0,0,1-.3,1.2,2.54,2.54,0,0,1-.8,1,3.1,3.1,0,0,1-1.3.6,3,3,0,0,1,1.3.5,3.13,3.13,0,0,1,.9,1.1,3.19,3.19,0,0,1,.3,1.4h0a2.9,2.9,0,0,1-.5,1.8,3,3,0,0,1-1.3,1.2,4.48,4.48,0,0,1-2,.4h-3.8Z" transform="translate(-3.05 -1.58)"/><path class="cls-6" d="M113.61,269.59a3.16,3.16,0,0,1-1.4-1.4,5.45,5.45,0,0,1-.5-2.2v-1a4.56,4.56,0,0,1,.5-2.3,3.74,3.74,0,0,1,1.3-1.5,3.64,3.64,0,0,1,2.1-.5,3.51,3.51,0,0,1,2,.5,2.76,2.76,0,0,1,1.2,1.4,5.87,5.87,0,0,1,.4,2.3V266h-6.6v-1.1h5.5v-.1a3.7,3.7,0,0,0-.6-2.1,2.09,2.09,0,0,0-1.8-.7,2.27,2.27,0,0,0-2,.8,3.41,3.41,0,0,0-.7,2.2v1.2a3.14,3.14,0,0,0,.7,2.1,3.23,3.23,0,0,0,2.1.8,2.38,2.38,0,0,0,1.2-.3,4.13,4.13,0,0,0,1.1-.7l.9.8a4.92,4.92,0,0,1-1.5,1,8.47,8.47,0,0,1-1.7.4A5.19,5.19,0,0,1,113.61,269.59Z" transform="translate(-3.05 -1.58)"/><path class="cls-6" d="M122.81,267.59a1.61,1.61,0,0,0,.3.9,1.14,1.14,0,0,0,.8.3h.8V270h-1.1a2.27,2.27,0,0,1-1.6-.6,2.79,2.79,0,0,1-.6-1.8v-10.4h1.3Z" transform="translate(-3.05 -1.58)"/><path class="cls-6" d="M107.11,320.59v1.9a6.46,6.46,0,0,1-.5,2.7,3.32,3.32,0,0,1-1.5,1.6,4.34,4.34,0,0,1-2.5.5,5.34,5.34,0,0,1-2.5-.5,3.12,3.12,0,0,1-1.5-1.5,5.34,5.34,0,0,1-.5-2.5V319a6.46,6.46,0,0,1,.5-2.7,3.32,3.32,0,0,1,1.5-1.6,5.34,5.34,0,0,1,2.5-.5,4.92,4.92,0,0,1,2.1.4,3.74,3.74,0,0,1,1.5,1.3,5.39,5.39,0,0,1,.8,2.1h-1.4a4.71,4.71,0,0,0-.6-1.5,2.84,2.84,0,0,0-1-.9,3.19,3.19,0,0,0-1.4-.3,3.92,3.92,0,0,0-1.8.4,2.54,2.54,0,0,0-1.1,1.2,3.4,3.4,0,0,0-.3,2v3.8a4.33,4.33,0,0,0,.4,1.9,2,2,0,0,0,1.1,1.1,4.25,4.25,0,0,0,3.6,0,2.34,2.34,0,0,0,1-1.2,4.43,4.43,0,0,0,.3-2v-.7h-3.1v-1.2Z" transform="translate(-3.05 -1.58)"/><path class="cls-6" d="M111.21,326.79a3,3,0,0,1-1.3-1.4,4,4,0,0,1-.4-2.1v-1.5a4.92,4.92,0,0,1,.4-2.1,3.48,3.48,0,0,1,1.3-1.4,4.89,4.89,0,0,1,4.1,0,3,3,0,0,1,1.3,1.4,4,4,0,0,1,.4,2.1v1.5a4.92,4.92,0,0,1-.4,2.1,3.53,3.53,0,0,1-1.3,1.4,4.89,4.89,0,0,1-4.1,0Zm3.9-1.4a3.06,3.06,0,0,0,.7-2v-1.5a3.06,3.06,0,0,0-.7-2,2.66,2.66,0,0,0-3.7,0,3.06,3.06,0,0,0-.7,2v1.5a2.56,2.56,0,0,0,4.4,2Zm-4-10.5h1.3v1.3h-1.3Zm3.1,0h1.3v1.3h-1.3Z" transform="translate(-3.05 -1.58)"/><path class="cls-6" d="M119.51,314.29h1.3v12.8h-1.3Zm2.2,12.6a2.54,2.54,0,0,1-1.1-1.2l.1-1.9a2,2,0,0,0,.3,1.1,2.36,2.36,0,0,0,.8.9,2.3,2.3,0,0,0,3.6-2.2v-2a3.61,3.61,0,0,0-.6-2,2.48,2.48,0,0,0-3.4-.1,2.09,2.09,0,0,0-.4.6,2,2,0,0,0-.3,1.1l-.2-1.8a3.25,3.25,0,0,1,1.3-1.3,3.92,3.92,0,0,1,1.8-.4,3.29,3.29,0,0,1,1.7.4,2.21,2.21,0,0,1,1,1.3,4.48,4.48,0,0,1,.4,2v2a4.48,4.48,0,0,1-.4,2,2.76,2.76,0,0,1-1.1,1.3,2.54,2.54,0,0,1-1.7.4,2.89,2.89,0,0,1-1.8-.2Z" transform="translate(-3.05 -1.58)"/><path class="cls-6" d="M130.81,326.79a3.16,3.16,0,0,1-1.4-1.4,5.45,5.45,0,0,1-.5-2.2v-1a4.56,4.56,0,0,1,.5-2.3,3.74,3.74,0,0,1,1.3-1.5,4.65,4.65,0,0,1,2.1-.5,3.51,3.51,0,0,1,2,.5,2.36,2.36,0,0,1,1.2,1.4,5.87,5.87,0,0,1,.4,2.3v1h-6.6V322h5.4v-.1a3.7,3.7,0,0,0-.6-2.1,2.09,2.09,0,0,0-1.8-.7,2.17,2.17,0,0,0-2,.8,3.41,3.41,0,0,0-.7,2.2v1.2a3.14,3.14,0,0,0,.7,2.1,3.23,3.23,0,0,0,2.1.8,2.38,2.38,0,0,0,1.2-.3,2.84,2.84,0,0,0,1.1-.8l.9.8a4,4,0,0,1-1.5,1,4.71,4.71,0,0,1-1.7.4A5.37,5.37,0,0,1,130.81,326.79Z" transform="translate(-3.05 -1.58)"/><path class="cls-6" d="M138.81,314.29h1.3v12.8h-1.3Zm.9,9.7,5.2-6h1.5l-6.9,7.8Zm2.6-1.8.7-1.2,3.8,6.1h-1.5Z" transform="translate(-3.05 -1.58)"/><path class="cls-6" d="M3.05,478.79h1.3v12.8H3.05Zm1.1,11.6h3.5a3.48,3.48,0,0,0,2.4-.6,2.29,2.29,0,0,0,.8-1.7h0a3.08,3.08,0,0,0-.3-1.3,1.42,1.42,0,0,0-.9-.8,4,4,0,0,0-1.5-.3h-4v-1.2h3.9A2.62,2.62,0,0,0,10,484a1.75,1.75,0,0,0,.6-1.7,1.9,1.9,0,0,0-.7-1.7,3.7,3.7,0,0,0-2.1-.6H4.15v-1.2h4a5.22,5.22,0,0,1,2.1.4,2.78,2.78,0,0,1,1.2,1.2,3.92,3.92,0,0,1,.4,1.8,5,5,0,0,1-.2,1.2,2.54,2.54,0,0,1-.8,1,2.11,2.11,0,0,1-1.3.5,2.65,2.65,0,0,1,2.2,1.6,3.19,3.19,0,0,1,.3,1.4h0a2.9,2.9,0,0,1-.5,1.8,3,3,0,0,1-1.3,1.2,4.48,4.48,0,0,1-2,.4H4.15Z" transform="translate(-3.05 -1.58)"/><path class="cls-6" d="M15.05,491a2.72,2.72,0,0,1-.9-2.1,2.79,2.79,0,0,1,.8-2,3.17,3.17,0,0,1,2.3-.7h3l.1,1.2h-3.1a2.3,2.3,0,0,0-1.4.4,1.67,1.67,0,0,0-.1,2.2l.2.2a2.54,2.54,0,0,0,1.7.4,5.54,5.54,0,0,0,1.8-.2c.4-.2.7-.4.7-.7l.2,1.2a1.79,1.79,0,0,1-.7.5,3.81,3.81,0,0,1-1,.3,4.87,4.87,0,0,1-1.2.1A4.31,4.31,0,0,1,15.05,491Zm5.2-5.2a2.72,2.72,0,0,0-.6-1.7,2.11,2.11,0,0,0-1.7-.6,5.85,5.85,0,0,0-1.3.2,2.38,2.38,0,0,0-1.1.6l-.9-.6a3.59,3.59,0,0,1,1.4-1,4,4,0,0,1,1.9-.3,4.77,4.77,0,0,1,2,.4,3.45,3.45,0,0,1,1.2,1.2,3.92,3.92,0,0,1,.4,1.8v5.8h-1.3Z" transform="translate(-3.05 -1.58)"/><path class="cls-6" d="M25.65,491.29a2.74,2.74,0,0,1-1.3-1.3,4.13,4.13,0,0,1-.4-2.2v-1.5a5.38,5.38,0,0,1,.4-2.2,3.25,3.25,0,0,1,1.3-1.3,4.13,4.13,0,0,1,2.2-.4,6.75,6.75,0,0,1,1.4.2,3.7,3.7,0,0,1,1.1.5,3,3,0,0,1,.8.8l-.9.8a3.92,3.92,0,0,0-1-.8,1.91,1.91,0,0,0-1.3-.2,3.06,3.06,0,0,0-2,.7,3.14,3.14,0,0,0-.7,2.1V488a2.7,2.7,0,0,0,.7,2.1,2.88,2.88,0,0,0,2,.7,3.58,3.58,0,0,0,2.5-1.1l.8.8a3,3,0,0,1-.8.8,3.7,3.7,0,0,1-1.1.5,5.9,5.9,0,0,1-1.4.2A15.46,15.46,0,0,1,25.65,491.29Z" transform="translate(-3.05 -1.58)"/><path class="cls-6" d="M33.85,491a3,3,0,0,1-.1-4.1,3.17,3.17,0,0,1,2.3-.7h3l.1,1.2h-3.1a1.84,1.84,0,0,0-1.3.4,1.61,1.61,0,0,0-.5,1.1,1.43,1.43,0,0,0,.6,1.2,2.54,2.54,0,0,0,1.7.4,5.54,5.54,0,0,0,1.8-.2c.4-.2.7-.4.7-.7l.2,1.2a1.79,1.79,0,0,1-.7.5,3.81,3.81,0,0,1-1,.3,4.87,4.87,0,0,1-1.2.1A3.53,3.53,0,0,1,33.85,491Zm5.2-5.2a2.72,2.72,0,0,0-.6-1.7,2.11,2.11,0,0,0-1.7-.6,5.85,5.85,0,0,0-1.3.2,2.38,2.38,0,0,0-1.1.6l-.9-.6a3.59,3.59,0,0,1,1.4-1,4,4,0,0,1,1.9-.3,4.06,4.06,0,0,1,1.9.4,3.45,3.45,0,0,1,1.2,1.2,3.92,3.92,0,0,1,.4,1.8v5.8h-1.2Z" transform="translate(-3.05 -1.58)"/><path class="cls-6" d="M43,478.79h1.3v12.8H43Zm.9,9.7,5.2-6h1.5l-6.9,7.8Zm2.6-1.9.7-1.2,3.8,6.1h-1.5Z" transform="translate(-3.05 -1.58)"/><path class="cls-6" d="M282.81,224.89h1.3v12.8h-1.3Zm.6,8.9,7-8.9H292l-8.1,9.9Zm3.6-2.9.7-1.3,4.8,8.1H291Z" transform="translate(-3.05 -1.58)"/><path class="cls-6" d="M295.61,237.39a3,3,0,0,1-1.3-1.4,4,4,0,0,1-.4-2.1v-1.5a4.92,4.92,0,0,1,.4-2.1,3.48,3.48,0,0,1,1.3-1.4,4.89,4.89,0,0,1,4.1,0,3,3,0,0,1,1.3,1.4,4,4,0,0,1,.4,2.1v1.5a4.92,4.92,0,0,1-.4,2.1,3.48,3.48,0,0,1-1.3,1.4A4.89,4.89,0,0,1,295.61,237.39Zm3.8-1.5a3.06,3.06,0,0,0,.7-2v-1.5a3.06,3.06,0,0,0-.7-2,2.2,2.2,0,0,0-1.8-.7,2.27,2.27,0,0,0-1.8.7,3.06,3.06,0,0,0-.7,2v1.5a3.06,3.06,0,0,0,.7,2,2.09,2.09,0,0,0,1.8.7,2,2,0,0,0,1.8-.7Z" transform="translate(-3.05 -1.58)"/><path class="cls-6" d="M305.11,235.29a1.61,1.61,0,0,0,.3.9,1.14,1.14,0,0,0,.8.3h.8v1.2h-1a2.27,2.27,0,0,1-1.6-.6,2.79,2.79,0,0,1-.6-1.8v-10.4h1.3Z" transform="translate(-3.05 -1.58)"/></g></svg>