<svg xmlns="http://www.w3.org/2000/svg" viewBox="0 0 678 1529.14"><defs><style>.a{fill:none;stroke:#000;stroke-miterlimit:10;stroke-width:4px;}</style></defs><path class="a" d="M559.24,230.39s114-30.39,80,171.61c0,5-33,31,78,87s88,207,178,553c16,61-82,86-95,18s-94-426-94-426,82,1002,82,1006,49,76,10,101-170,19-175-66-64-545.39-64-545.39" transform="translate(-221 -226.77)"/><path class="a" d="M560.76,230.39s-114-30.39-80,171.61c0,5,33,31-78,87s-88,207-178,553c-16,61,82,86,95,18s94-426,94-426-82,1002-82,1006-49,76-10,101,170,19,175-66,64-545.39,64-545.39" transform="translate(-221 -226.77)"/></svg>